<?xml version="1.0" standalone="no"?>
<!DOCTYPE svg PUBLIC "-//W3C//DTD SVG 1.1//EN" "http://www.w3.org/Graphics/SVG/1.1/DTD/svg11.dtd" >
<svg xmlns="http://www.w3.org/2000/svg">
<metadata>
This is a custom SVG webfont generated by Font Squirrel.
Copyright   : Copyright c 2009 by Roman Shamin  Jovanny Lemonad All rights reserved
Designer    : Roman Shamin
Foundry     : Roman Shamin  Jovanny Lemonad
Foundry URL : httpwwwjovannyru
</metadata>
<defs>
<font id="webfontCafsD5Vv" horiz-adv-x="333" >
<font-face units-per-em="2048" ascent="1536" descent="-512" />
<missing-glyph horiz-adv-x="512" />
<glyph unicode=" "  horiz-adv-x="512" />
<glyph unicode="&#x09;" horiz-adv-x="512" />
<glyph unicode="&#xa0;" horiz-adv-x="512" />
<glyph unicode="!" horiz-adv-x="413" d="M102 74q0 41 31 70.5t74 29.5t73.5 -29.5t30.5 -70.5t-30.5 -71t-73.5 -30t-74 30t-31 71zM137 958v476h142v-476l-21 -667h-102q-19 450 -19 667z" />
<glyph unicode="&#x22;" horiz-adv-x="569" d="M102 1434h123v-627h-80q-43 197 -43 627zM344 807v627h123q0 -190 -10.5 -347t-22.5 -219l-10 -61h-80z" />
<glyph unicode="#" horiz-adv-x="1382" d="M20 410v125h306l94 364h-264v125h295l106 410h129l-106 -410h378l107 410h129l-107 -410h275v-125h-305l-94 -364h264v-125h-297l-105 -410h-129l105 410h-379l-105 -410h-129l105 410h-273zM455 535h379l94 364h-379z" />
<glyph unicode="$" horiz-adv-x="976" d="M61 111l48 77q147 -88 327 -88h4v580q-354 131 -354 393q0 164 99.5 264.5t254.5 118.5v133h99v-131q88 -4 170 -27.5t118 -44.5l37 -20l-41 -88q-131 57 -278 57h-6v-538q205 -70 290.5 -170.5t85.5 -266.5q0 -156 -102 -262t-274 -121v-163h-99v163q-119 6 -213 40 t-129 65zM227 1083q0 -94 52.5 -151.5t160.5 -100.5v496q-213 -39 -213 -244zM539 109q236 39 235 266q0 88 -53 153.5t-182 116.5v-536z" />
<glyph unicode="%" horiz-adv-x="1724" d="M61 1030q0 201 109 313.5t258 112.5q147 0 253.5 -112.5t106.5 -313.5q0 -199 -108.5 -311.5t-257.5 -112.5q-147 0 -254 111.5t-107 312.5zM195 1030q0 -311 227 -311q233 0 233 311t-227 311q-104 0 -168.5 -75.5t-64.5 -235.5zM244 0l1083 1434h152l-1082 -1434h-153z M936 397q0 199 107.5 312.5t257 113.5t256 -112.5t106.5 -313.5q0 -199 -108.5 -311.5t-258.5 -112.5q-147 0 -253.5 111.5t-106.5 312.5zM1069 397q0 -311 227 -311q233 0 233.5 311.5t-229.5 311.5q-102 0 -166.5 -76t-64.5 -236z" />
<glyph unicode="&#x26;" horiz-adv-x="1275" d="M61 354q0 131 75 223.5t239 213.5q-166 213 -166 354q0 154 98.5 232.5t245.5 78.5q135 0 228 -71.5t93 -196.5q0 -119 -76.5 -207t-254.5 -209q82 -98 196 -213l213 -207q80 154 80 330h105q0 -248 -95 -414l213 -186l-55 -80q-78 41 -225 168q-174 -197 -455 -197 q-221 0 -340 101.5t-119 279.5zM195 356q0 -131 92 -199.5t241 -68.5q225 0 359 162l-250 248q-96 98 -195 211q-127 -96 -187 -173.5t-60 -179.5zM340 1155q0 -123 141 -305q12 10 55 41l54 40q12 9 44 35.5t43 40.5l32 37q20 25 26 43.5l13.5 43t7.5 51.5 q0 76 -57.5 117.5t-145.5 41.5q-213 0 -213 -186z" />
<glyph unicode="'" horiz-adv-x="329" d="M102 1434h125l-6 -627h-112z" />
<glyph unicode="(" horiz-adv-x="532" d="M82 547q0 143 21.5 271t56.5 217t77 164t82.5 120t75.5 76.5t56 46.5l22 12l49 -61q-12 -10 -32.5 -32t-71.5 -99.5t-90 -166.5t-72 -237.5t-33 -310.5t31 -309.5t75 -240.5t88 -164t75 -101l30 -31l-49 -61q-16 8 -43 26.5t-93.5 91t-118.5 165.5t-94 260t-42 364z" />
<glyph unicode=")" horiz-adv-x="532" d="M10 -299q12 10 32.5 31.5t72 99.5t90.5 167t71.5 237.5t32.5 310.5t-30.5 309.5t-74.5 240.5t-88 163.5t-75 101.5l-31 31l49 61q16 -8 43 -26.5t93.5 -91t119 -166t94.5 -260.5t42 -363.5t-40 -362.5t-97.5 -262t-116 -163.5t-99.5 -94.5l-39 -24z" />
<glyph unicode="*" horiz-adv-x="772" d="M61 1094v112q115 0 242 -24l-127 221l96 57q47 -82 101 -221l127 221l98 -57q-51 -88 -141 -197h254v-112q-117 0 -240 24l127 -221l-98 -55q-55 96 -99 219l-129 -219l-96 55q51 94 141 197h-256z" />
<glyph unicode="+" horiz-adv-x="1024" d="M41 553v125h405v407h132v-407h405v-125h-405v-408h-132v408h-405z" />
<glyph unicode="," d="M61 74q0 41 31 70.5t74 29.5t73.5 -29.5t30.5 -70.5q6 -53 -16 -121q-14 -45 -47 -89t-60 -65l-24 -22l-49 45q66 66 82 151q-41 4 -68 33t-27 68z" />
<glyph unicode="-" horiz-adv-x="696" d="M41 471v125h614v-125h-614z" />
<glyph unicode="." horiz-adv-x="331" d="M61 74q0 41 31 70.5t74 29.5q45 0 74.5 -29.5t29.5 -70.5t-29.5 -71t-74.5 -30q-43 0 -74 30t-31 71z" />
<glyph unicode="/" horiz-adv-x="804" d="M0 0l676 1434h129l-676 -1434h-129z" />
<glyph unicode="0" horiz-adv-x="1157" d="M82 715q0 381 124 561t372 180q250 0 373.5 -180t123.5 -561q0 -379 -125 -560.5t-372.5 -181.5t-371.5 180.5t-124 561.5zM231 715q0 -330 86 -473.5t260.5 -143.5t260.5 143.5t86 473.5q0 332 -86 475t-260.5 143t-260.5 -143t-86 -475z" />
<glyph unicode="1" horiz-adv-x="550" d="M41 1202v98l324 134h84v-1434h-136v1288z" />
<glyph unicode="2" horiz-adv-x="954" d="M61 0v125q0 119 71 227.5t172 191.5l203 162q101 79 172 174t71 193q0 133 -60.5 195.5t-226.5 62.5q-78 0 -158 -28.5t-121 -57.5l-43 -28l-51 86q6 6 18.5 16t53.5 36.5t85 47t110.5 37t131.5 16.5q197 0 300.5 -95t103.5 -282q0 -106 -45 -198.5t-112.5 -154.5 t-152.5 -131l-161 -129q-76 -60 -140.5 -149.5t-88.5 -191.5h684v-125h-816z" />
<glyph unicode="3" horiz-adv-x="995" d="M41 98l37 84q16 -10 47 -24.5t127 -39t197 -24.5q342 0 342 309q0 324 -293 324h-222v80l431 502h-621v125h788v-125l-395 -459h8q47 0 95.5 -7t115 -35t115.5 -74t85 -133t36 -202q0 -195 -127 -310.5t-334 -115.5q-119 0 -226.5 32t-156.5 63z" />
<glyph unicode="4" horiz-adv-x="1007" d="M41 403v125l534 930h146l-535 -930h508v426h131v-426h142v-125h-142v-403h-131v403h-653z" />
<glyph unicode="5" horiz-adv-x="978" d="M61 98l43 84q10 -10 31 -24.5t101.5 -39t181 -24.5t174.5 37t110.5 94.5t53 112.5t16.5 108q0 340 -295 340q-78 0 -147.5 -21.5t-100.5 -43.5l-28 -21l-82 17l57 717h723v-125h-604l-37 -457q86 55 227 55q182 0 307.5 -119.5t125.5 -332.5q0 -201 -136.5 -341.5 t-339.5 -140.5q-119 0 -214 32t-130 63z" />
<glyph unicode="6" horiz-adv-x="1017" d="M82 707q0 199 44 349t120 234t164 125t186 41q78 0 152.5 -28.5t111.5 -57.5l35 -29l-47 -75q-88 76 -227 75q-213 0 -313.5 -159.5t-100.5 -444.5v-47h6q31 72 120 136.5t214 64.5q184 0 296.5 -120t112.5 -329q0 -211 -127 -340t-309 -129q-94 0 -166.5 27t-119 80 t-78 116.5t-47 152.5t-21.5 171.5t-6 186.5zM217 485q18 -182 86 -290.5t217 -108.5q125 0 215 92t90 264q0 150 -69.5 241t-184.5 91q-90 0 -160.5 -37t-109.5 -91t-57.5 -93t-26.5 -68z" />
<glyph unicode="7" horiz-adv-x="931" d="M41 1309v125h850v-125l-422 -1309h-143l422 1309h-707z" />
<glyph unicode="8" horiz-adv-x="1054" d="M72 342q0 88 36.5 166t95 130t102.5 82t85 48q-129 74 -190.5 156t-61.5 200q0 139 100.5 235.5t286.5 96.5q182 0 283.5 -94t101.5 -244q0 -63 -26.5 -122.5t-69.5 -103.5t-81 -72.5t-75 -49.5q172 -92 248 -185t76 -233q0 -174 -121 -276.5t-338 -102.5t-334.5 99.5 t-117.5 269.5zM201 358q0 -119 76.5 -192.5t248.5 -73.5q168 0 246 69.5t78 190.5q0 113 -70.5 188.5t-253.5 157.5l-24 13q-33 -12 -77 -39t-98.5 -71t-90 -108.5t-35.5 -134.5zM270 1124q0 -100 68 -165.5t207 -129.5l2 -2h4q84 33 158.5 107t74.5 178q0 113 -69.5 170 t-188.5 57q-111 0 -183.5 -52t-72.5 -163z" />
<glyph unicode="9" horiz-adv-x="1017" d="M61 987q0 211 127 340t310 129q94 0 166.5 -26.5t118.5 -80t78 -117t47.5 -152.5t21.5 -171t6 -186q0 -199 -44 -349.5t-120 -234.5t-164 -125t-186 -41q-78 0 -152.5 29t-109.5 57l-37 29l47 76q88 -76 227 -76q213 0 313.5 160t100.5 444v47h-6q-31 -72 -120 -136 t-214 -64q-184 0 -297 119.5t-113 328.5zM193 987q0 -150 69.5 -241t183.5 -91q90 0 161 37t110 91.5t57.5 93t26.5 67.5q-18 182 -86 290.5t-217 108.5q-125 0 -215 -92t-90 -264z" />
<glyph unicode=":" horiz-adv-x="331" d="M61 74q0 41 31 70.5t74 29.5q45 0 74.5 -29.5t29.5 -70.5t-29.5 -71t-74.5 -30q-43 0 -74 30t-31 71zM61 879q0 41 31 70.5t74 29.5q45 0 74.5 -29.5t29.5 -70.5t-29.5 -71t-74.5 -30q-43 0 -74 30t-31 71z" />
<glyph unicode=";" d="M61 74q0 41 31 70.5t74 29.5t73.5 -29.5t30.5 -70.5q6 -53 -16 -121q-14 -45 -47 -89t-60 -65l-24 -22l-49 45q66 66 82 151q-41 4 -68 33t-27 68zM61 879q0 41 31 70.5t74 29.5q45 0 74.5 -29.5t29.5 -70.5t-29.5 -71t-74.5 -30q-43 0 -74 30t-31 71z" />
<glyph unicode="&#x3c;" horiz-adv-x="1044" d="M41 481v103l963 495v-135l-799 -412l799 -411v-135z" />
<glyph unicode="=" horiz-adv-x="1024" d="M41 332v123h942v-123h-942zM41 772v125h942v-125h-942z" />
<glyph unicode="&#x3e;" horiz-adv-x="1044" d="M41 -14v135l799 411l-799 412v135l963 -495v-103z" />
<glyph unicode="?" horiz-adv-x="884" d="M20 1303q6 6 18.5 16t53.5 36.5t85 47t110.5 37t132.5 16.5q197 0 310.5 -108.5t113.5 -298.5q0 -84 -22.5 -152t-58.5 -113t-80 -85l-88 -77q-44 -38 -80 -82t-58.5 -107.5t-22.5 -141.5h-110q0 111 27.5 194.5t69.5 130t91 93.5l91 85q42 38 69.5 102.5t27.5 145.5 q0 137 -79.5 213t-227.5 76q-78 0 -157.5 -28.5t-120.5 -57.5l-43 -28zM274 74q0 41 31 70.5t74 29.5t73.5 -29.5t30.5 -70.5t-30.5 -71t-73.5 -30t-74 30t-31 71z" />
<glyph unicode="@" horiz-adv-x="1748" d="M61 690q0 274 132.5 485t331 315.5t421.5 104.5q348 0 545 -190.5t197 -497.5q0 -291 -147.5 -490.5t-301.5 -199.5q-27 0 -50.5 8t-50 31t-40 73t-8.5 124l-11 -26q-6 -15 -31.5 -56t-56 -72t-87 -56.5t-120.5 -25.5q-131 0 -225 107.5t-94 314.5q0 233 140 413.5 t345 180.5q131 0 219 -72l7 47h120l-88 -716q-23 -162 47 -162q37 0 88.5 30.5t107.5 92t95 181.5t39 273q0 279 -180 432.5t-459 153.5q-123 0 -252 -49t-244.5 -142.5t-189.5 -253t-74 -358.5q0 -190 63.5 -337.5t169 -231.5t224.5 -126t246 -42q172 0 325.5 69.5 t247.5 184.5l60 -53q-115 -152 -284 -230t-349 -78q-168 0 -315.5 54.5t-263 157t-182.5 266t-67 366.5zM598 649q0 -319 205 -319q61 0 116.5 42t91.5 101t61.5 117.5t37.5 101.5l10 41l37 326q-72 68 -207 67q-158 0 -255 -143.5t-97 -333.5z" />
<glyph unicode="A" horiz-adv-x="1165" d="M41 0l455 1434h131l497 -1434h-139l-149 434h-527l-137 -434h-131zM346 551h449l-234 676z" />
<glyph unicode="B" horiz-adv-x="1142" d="M102 0v1434h418q475 0 475 -355q0 -80 -24.5 -141t-59 -91t-69.5 -48.5t-60 -20.5l-24 -4v-6q12 -2 32.5 -6t72.5 -26.5t92 -56.5t73 -104.5t33 -160.5q0 -205 -115 -309.5t-381 -104.5h-463zM231 125h334q70 0 115 4t95 20.5t79 47t47.5 85t18.5 132.5 q0 145 -89.5 211.5t-238.5 66.5h-361v-567zM231 817h318q135 0 224 68.5t89 193.5t-83 178.5t-259 53.5h-289v-494z" />
<glyph unicode="C" horiz-adv-x="1142" d="M82 702q0 172 36 306.5t92 217.5t134 136t156 73.5t162 20.5q104 0 206.5 -31.5t151.5 -64.5l51 -31l-41 -80q-147 82 -323 82q-479 0 -480 -629q0 -604 484 -604q96 0 183 23.5t126 46.5l41 25l41 -80q-6 -6 -18.5 -15.5t-53.5 -33t-88 -42t-122 -34t-154 -15.5 q-115 0 -214.5 37t-185.5 117t-135 227t-49 348z" />
<glyph unicode="D" horiz-adv-x="1171" d="M102 0v1434h406q258 0 420 -182.5t162 -536.5q0 -350 -162 -532.5t-420 -182.5h-406zM233 125h275q186 0 310 144.5t124 445.5q0 303 -124 448.5t-310 145.5h-275v-1184z" />
<glyph unicode="E" horiz-adv-x="1007" d="M102 0v1434h836v-125h-707v-506h603v-125h-603v-553h715v-125h-844z" />
<glyph unicode="F" horiz-adv-x="978" d="M102 0v1434h836v-125h-707v-508h600v-125h-600v-676h-129z" />
<glyph unicode="G" horiz-adv-x="1204" d="M82 702q0 203 52 355.5t140 235.5t185.5 123t202 40t207 -31.5t151.5 -64.5l51 -31l-39 -80q-150 82 -325 82q-215 0 -346.5 -153.5t-131.5 -475.5q0 -604 471 -604q135 0 271 74v561h131v-627q-16 -14 -50 -36.5t-146.5 -59.5t-239.5 -37q-115 0 -214.5 37t-185.5 117 t-135 227t-49 348z" />
<glyph unicode="H" horiz-adv-x="1218" d="M102 0v1434h129v-633h754v633h131v-1434h-131v676h-754v-676h-129z" />
<glyph unicode="I" d="M102 0v1434h129v-1434h-129z" />
<glyph unicode="J" horiz-adv-x="462" d="M0 68q117 33 174 115.5t57 265.5v985h129v-985q0 -57 -6 -109.5t-27.5 -120t-56 -118t-101.5 -87.5t-155 -41z" />
<glyph unicode="K" horiz-adv-x="1079" d="M102 0v1434h129v-723l609 723h166l-537 -637l610 -797h-164l-532 694l-152 -178v-516h-129z" />
<glyph unicode="L" horiz-adv-x="987" d="M102 0v1434h129v-1309h715v-125h-844z" />
<glyph unicode="M" horiz-adv-x="1495" d="M102 0v1434h129l531 -1012l500 1012h131v-1434h-131v1145l-439 -875h-118l-474 891v-1161h-129z" />
<glyph unicode="N" horiz-adv-x="1245" d="M102 0v1434h146l766 -1225v1225h129v-1434h-146l-766 1225v-1225h-129z" />
<glyph unicode="O" horiz-adv-x="1325" d="M82 714.5q0 366.5 160.5 554t421 187.5t420 -186.5t159.5 -555t-159.5 -555t-420 -186.5t-421 187.5t-160.5 554zM229 714.5q0 -317.5 123 -467t311.5 -149.5t311.5 149.5t123 467t-123 467t-311.5 149.5t-311.5 -149.5t-123 -467z" />
<glyph unicode="P" horiz-adv-x="1091" d="M102 0v1434h375q553 0 553 -418q0 -209 -139 -319.5t-414 -110.5h-239v-586h-136zM238 711h239q90 0 154.5 10t128 41t96.5 94.5t33 159.5q0 94 -34 156.5t-99.5 90t-128 37t-150.5 9.5h-239v-598z" />
<glyph unicode="Q" horiz-adv-x="1339" d="M82 714.5q0 366.5 160.5 554t421 187.5t420 -186.5t159.5 -554.5q0 -295 -105.5 -474.5t-287.5 -238.5l407 -260l-38 -61q-160 41 -555 292q-260 0 -421 187.5t-161 554zM229 714.5q0 -317.5 123 -467t312 -149.5q186 0 309 149.5t123 467t-123 467t-309 149.5 q-188 0 -311.5 -149.5t-123.5 -467z" />
<glyph unicode="R" horiz-adv-x="1091" d="M102 0v1434h377q268 0 409.5 -104.5t141.5 -313.5q0 -315 -309 -402l309 -614h-145l-297 590q-70 -4 -109 -4h-239v-586h-138zM240 711h239q70 0 123 5t109.5 24.5t93.5 51t60.5 89t23.5 135.5q0 94 -34 156.5t-98.5 90t-127 37t-150.5 9.5h-239v-598z" />
<glyph unicode="S" horiz-adv-x="1091" d="M61 106l41 87q195 -94 402 -95q383 0 383 273q0 106 -82 168.5t-268 124.5l-135.5 47t-119 55t-105.5 75t-63.5 97t-27.5 133q0 182 128 283.5t337 101.5q106 0 212.5 -23.5t160.5 -46.5l53 -22l-29 -88q-166 55 -354 55q-367 0 -367 -252q0 -59 24.5 -103t77 -75 t99.5 -49t125 -43q14 -4 20 -6q240 -80 348.5 -174t108.5 -271q0 -180 -129 -282.5t-342 -102.5q-152 0 -276.5 34t-171.5 67z" />
<glyph unicode="T" horiz-adv-x="1067" d="M41 1309v125h985v-125h-428v-1309h-129v1309h-428z" />
<glyph unicode="U" horiz-adv-x="1196" d="M102 487v947h129v-947q0 -195 96.5 -292t270.5 -97t269.5 97.5t95.5 291.5v947h131v-947q0 -117 -32 -209t-82 -148t-116.5 -92t-132 -50.5t-133.5 -14.5q-86 0 -167 25t-157.5 79t-124 160.5t-47.5 249.5z" />
<glyph unicode="V" horiz-adv-x="1196" d="M0 1434h139l459 -1221l459 1221h139l-539 -1434h-118z" />
<glyph unicode="W" horiz-adv-x="1814" d="M0 1434h137l359 -1180l338 1044h147l338 -1044l358 1180h138l-435 -1434h-120l-353 1087l-352 -1087h-121z" />
<glyph unicode="X" horiz-adv-x="1126" d="M0 0l475 723l-463 711h158l383 -588h20l383 588h158l-463 -711l475 -723h-157l-406 616l-405 -616h-158z" />
<glyph unicode="Y" horiz-adv-x="1198" d="M0 1434h145l467 -750l441 750h145l-520 -881v-553h-131v547z" />
<glyph unicode="Z" horiz-adv-x="1054" d="M41 0v125l807 1184h-778v125h936v-125l-807 -1184h815v-125h-973z" />
<glyph unicode="[" horiz-adv-x="534" d="M102 -342v1776h422v-119h-293v-1538h293v-119h-422z" />
<glyph unicode="\" horiz-adv-x="804" d="M0 1434h129l676 -1434h-129z" />
<glyph unicode="]" horiz-adv-x="534" d="M10 -223h293v1538h-293v119h422v-1776h-422v119z" />
<glyph unicode="^" horiz-adv-x="716" d="M0 942l307 492h103l307 -492h-135l-224 358l-223 -358h-135z" />
<glyph unicode="_" horiz-adv-x="614" d="M0 0h614v-125h-614v125z" />
<glyph unicode="`" horiz-adv-x="452" d="M0 1434h178l275 -410h-125z" />
<glyph unicode="a" horiz-adv-x="907" d="M72 233q0 94 50 160t189.5 111t368.5 47v12q0 174 -53.5 236.5t-190.5 62.5q-57 0 -126.5 -13t-110.5 -28l-41 -14l-27 76q158 84 336 84q172 0 255 -89.5t83 -314.5v-563h-100q-12 74 -19 145q-152 -156 -330 -155q-129 0 -206.5 65t-77.5 178zM197 242q0 -76 47 -112 t121 -36q168 0 315 178v179q-240 -2 -361.5 -49t-121.5 -160z" />
<glyph unicode="b" horiz-adv-x="933" d="M102 72v1362h125v-521q86 66 228 66q184 0 300.5 -115.5t116.5 -357.5q0 -236 -119.5 -382.5t-320.5 -146.5q-88 0 -170 24t-121 48zM227 123q86 -35 181 -35q158 0 249 109.5t91 308.5q0 182 -85 274t-231 92q-121 0 -205 -79v-670z" />
<glyph unicode="c" horiz-adv-x="811" d="M61 469q0 229 115 369.5t285 140.5q80 0 151.5 -20.5t104.5 -40.5l33 -23l-27 -76q-102 53 -231 53q-133 0 -220.5 -113.5t-87.5 -289.5q0 -172 87 -279.5t223 -107.5q66 0 128 14.5t91 26.5l30 14l27 -76q-12 -10 -35.5 -23t-103.5 -37t-168 -24q-170 0 -286 132.5 t-116 359.5z" />
<glyph unicode="d" horiz-adv-x="917" d="M61 438q0 539 428 539q113 0 201 -70v492h125v-1399h-100q-12 74 -19 143q-139 -168 -301 -168q-90 0 -157.5 38t-104.5 105.5t-54.5 146.5t-17.5 173zM193 438q0 -96 18 -173t68.5 -131t126.5 -54q135 0 284 194v527q-84 74 -192 73q-68 0 -114 -13t-94 -54 t-72.5 -134.5t-24.5 -234.5z" />
<glyph unicode="e" horiz-adv-x="876" d="M61 467q0 231 124 371.5t292 140.5q96 0 166 -44t105.5 -121t51 -160t15.5 -179l-629 -10q0 -186 98.5 -282.5t227.5 -96.5q72 0 137.5 12.5t93.5 24.5l29 10l27 -72q-125 -84 -310 -84q-193 0 -310.5 130.5t-117.5 359.5zM190 545q166 27 500 35q-4 125 -59.5 211 t-153.5 86q-102 0 -185.5 -90t-101.5 -242z" />
<glyph unicode="f" horiz-adv-x="618" d="M41 846v108h172v181q0 172 65.5 246.5t194.5 74.5q47 0 99.5 -19.5t78.5 -37.5l29 -19l-27 -71q-96 45 -174 45q-143 0 -143 -219v-181h244v-108q-139 0 -244 14v-860h-123v846h-172z" />
<glyph unicode="g" horiz-adv-x="890" d="M41 -158q0 135 113 248q-51 35 -52 109q0 80 88 168q-88 90 -88 251q0 156 98.5 252.5t245.5 96.5q102 0 183 -43q70 31 241 30v-96l-170 6l-2 -2q43 -37 72 -112q20 -55 21 -132q0 -152 -97.5 -249t-247.5 -97q-111 0 -190 45q-16 -18 -29.5 -43.5t-18.5 -52t13.5 -45 t61.5 -18.5h247q47 0 95.5 -10.5t102.5 -37t89 -86t35 -141.5q0 -160 -119 -237.5t-309 -77.5q-193 0 -288 73.5t-95 200.5zM160 -137q0 -51 17.5 -88t43 -56.5t64.5 -31t71.5 -14.5t75.5 -3q123 0 212 48.5t89 164.5q0 82 -60.5 128t-142.5 46h-247q-31 0 -43 2 q-8 -6 -21.5 -20t-36 -64.5t-22.5 -111.5zM217 618q0 -246 229 -245q106 0 167 67.5t61 177.5q0 248 -228 248q-109 0 -169 -67.5t-60 -180.5z" />
<glyph unicode="h" horiz-adv-x="925" d="M102 0v1434h125v-607q147 152 312 152q162 0 223 -91t61 -259v-629h-125v629q0 129 -34.5 187t-135.5 58q-150 0 -301 -180v-694h-125z" />
<glyph unicode="i" horiz-adv-x="354" d="M102 1186q0 29 22.5 50t53.5 21t52.5 -21.5t21.5 -49.5q0 -31 -21.5 -51.5t-52.5 -20.5t-53.5 20.5t-22.5 51.5zM115 0v954h125v-954h-125z" />
<glyph unicode="j" horiz-adv-x="399" d="M-41 -395q109 31 155 116.5t46 278.5v954h125v-954q0 -66 -2 -110t-19.5 -117.5t-47.5 -119.5t-92.5 -84t-150.5 -42zM147 1186q0 29 21.5 50t54.5 21q31 0 52.5 -21.5t21.5 -49.5q0 -31 -21.5 -51.5t-52.5 -20.5q-33 0 -54.5 20.5t-21.5 51.5z" />
<glyph unicode="k" horiz-adv-x="854" d="M102 0v1434h125v-930l408 450h153l-362 -399l408 -555h-152l-338 463l-117 -129v-334h-125z" />
<glyph unicode="l" horiz-adv-x="376" d="M104 436v25v973h125v-973q0 -141 3.5 -198.5t21.5 -119t61 -90.5l-14 -76q-47 6 -83 26t-56.5 58.5t-32.5 73.5t-17.5 97.5t-6.5 98t-1 105.5z" />
<glyph unicode="m" horiz-adv-x="1431" d="M102 0v954h101q12 -70 18 -139q115 164 275 164q203 0 256 -195q125 195 295 195q164 0 223 -107.5t59 -322.5v-549h-125v549q0 154 -34.5 239.5t-131.5 85.5q-76 0 -132 -46t-128 -144v-684h-125v588q0 287 -166 286q-76 0 -133 -47t-127 -143v-684h-125z" />
<glyph unicode="n" horiz-adv-x="937" d="M102 0v954h101q12 -72 18 -143q139 168 303 168q311 0 312 -430v-549h-125v549q0 143 -48.5 234t-146.5 91q-141 0 -289 -192v-682h-125z" />
<glyph unicode="o" horiz-adv-x="976" d="M61 477.5q0 235.5 127 368.5t304 133q174 0 298.5 -133t124.5 -369q0 -233 -126.5 -366.5t-303.5 -133.5q-174 0 -299 132.5t-125 368zM190 477q0 -193 82 -292t213 -99q135 0 218 99.5t83 291.5q0 190 -84 291.5t-210 101.5q-123 0 -212.5 -102.5t-89.5 -290.5z" />
<glyph unicode="p" horiz-adv-x="917" d="M102 -444v1398h101q12 -74 18 -143q139 168 301 168q90 0 158 -38t104.5 -105.5t54 -146.5t17.5 -173q0 -539 -428 -539q-113 0 -201 70v-491h-125zM227 154q84 -74 193 -74q68 0 114 13t94 54t72.5 134.5t24.5 234.5q0 96 -18.5 173t-68.5 131t-126 54q-135 0 -285 -194 v-526z" />
<glyph unicode="q" horiz-adv-x="933" d="M61 451q0 236 120 382t321 146q88 0 170 -23.5t121 -46.5l38 -24v-1329h-124v487q-86 -66 -228 -66q-184 0 -301 116t-117 358zM186 451q0 -182 85 -274.5t231 -92.5q121 0 205 80v670q-86 35 -181 34q-158 0 -249 -109t-91 -308z" />
<glyph unicode="r" horiz-adv-x="651" d="M102 0v954h101q25 -154 24 -231v-21q14 47 41 86q115 178 363 179v-133q-98 0 -176 -29t-119 -70t-67.5 -82t-35.5 -69l-6 -29v-555h-125z" />
<glyph unicode="s" horiz-adv-x="806" d="M61 68l31 67q133 -49 273 -49q260 0 260 176q0 72 -52.5 106.5t-181.5 67.5q-72 18 -119 35.5t-100 49.5t-79.5 79t-26.5 111q0 135 97 201.5t249 66.5q72 0 145.5 -16.5t112.5 -32.5l39 -15l-25 -69q-117 29 -246 28q-252 0 -252 -157q0 -78 111 -119q25 -10 121 -39 q94 -29 137 -46t96.5 -52t73.5 -84t20 -123q0 -131 -98 -204t-246 -73q-102 0 -187 23t-120 45z" />
<glyph unicode="t" horiz-adv-x="702" d="M41 846v108h172v105q0 57 8 115.5t17 87.5l8 30h92v-338h242v-108q-141 0 -242 14v-561q0 -127 37 -173t104 -46q35 0 79 11t71 24l26 10l27 -72q-106 -76 -213 -76q-256 0 -256 322v547h-172z" />
<glyph unicode="u" horiz-adv-x="935" d="M102 410v544h123v-544q0 -143 48.5 -235.5t146.5 -92.5q141 0 289 192v680h125v-954h-101q-10 74 -18 145q-139 -168 -303 -168q-310 1 -310 433z" />
<glyph unicode="v" horiz-adv-x="835" d="M0 954h127l299 -751l283 751h127l-359 -954h-104z" />
<glyph unicode="w" horiz-adv-x="1277" d="M0 954h121l227 -733l234 643h114l234 -643l227 733h121l-295 -954h-100l-244 670l-244 -670h-100z" />
<glyph unicode="x" horiz-adv-x="815" d="M0 0l326 494l-303 460h141l235 -356h17l235 356h142l-304 -460l326 -494h-145l-262 395l-263 -395h-145z" />
<glyph unicode="y" horiz-adv-x="835" d="M0 954h135l301 -876l271 876h129l-340 -1106q-45 -147 -116 -223t-181 -76q-104 0 -176 76l43 70q68 -39 124 -39q119 0 185 223l35 121h-84z" />
<glyph unicode="z" horiz-adv-x="774" d="M41 0v111l537 731h-519v112h668v-110l-537 -731h543v-113h-692z" />
<glyph unicode="{" horiz-adv-x="612" d="M61 508v90q68 0 120 46t52 153v315q0 322 256 322h113v-103h-98q-68 0 -105 -46t-37 -173v-289q0 -68 -14 -121t-33.5 -79.5t-39 -44t-33.5 -21.5l-15 -4l16 -5q9 -3 31.5 -20.5t41 -44t32.5 -80t14 -120.5v-289q0 -127 37 -173t105 -46h98v-103h-113q-256 0 -256 322 v315q0 106 -52 152.5t-120 46.5z" />
<glyph unicode="|" d="M102 -143v1720h129v-1720h-129z" />
<glyph unicode="}" horiz-adv-x="612" d="M10 -225h99q68 0 104.5 46t36.5 173v289q0 68 14.5 121t33.5 79.5t38.5 44t34.5 21.5l14 4l-15 5q-9 3 -32 20.5t-41 44t-32.5 80t-14.5 120.5v289q0 127 -37 173t-104 46h-99v103h113q256 0 256 -322v-315q0 -106 52 -152.5t120 -46.5v-90q-68 0 -120 -46t-52 -153v-315 q0 -322 -256 -322h-113v103z" />
<glyph unicode="~" horiz-adv-x="1058" d="M41 498q84 160 254 159q102 0 260 -67q139 -61 229 -62q100 0 168 82l66 -43q-84 -160 -254 -159q-102 0 -260 67q-139 61 -230 62q-100 0 -168 -82z" />
<glyph unicode="&#xa4;" horiz-adv-x="1132" d="M20 512l21 100h102v52h-123l21 100h102v670h377q266 0 408.5 -100.5t142.5 -291.5q0 -182 -143.5 -280t-407.5 -98h-239v-52h251q164 0 243 -51t151 -192l186 -369h-145l-174 344q-47 94 -106.5 131t-154.5 37h-251v-512h-138v512h-123zM281 764h239q70 0 123 5 t109.5 22.5t93.5 47t60.5 82t23.5 121.5q0 84 -34 140.5t-98.5 82t-127 35t-150.5 9.5h-239v-545z" />
<glyph unicode="&#xa6;" d="M102 -143v737h129v-737h-129zM102 840v737h129v-737h-129z" />
<glyph unicode="&#xa7;" horiz-adv-x="884" d="M82 793q0 135 94 213q-63 70 -63 180q0 135 98 202.5t248 67.5q72 0 145.5 -15.5t112.5 -31.5l39 -16l-25 -70q-117 29 -246 29q-252 0 -252 -160q0 -63 42 -109.5t106 -69.5l137 -54q74 -30 137.5 -61.5t105.5 -96t42 -154.5q0 -131 -96 -213q66 -72 65 -180 q0 -131 -98.5 -204t-245.5 -73q-102 0 -187 23t-118 45l-35 23l31 67q133 -49 272 -49q260 0 260 176q0 76 -58 123t-142 74.5t-168 59.5t-142.5 100t-58.5 174zM203 799q0 -68 43 -116t96 -69.5t138 -52.5t132 -55q70 63 70 149q0 88 -60.5 135.5t-185.5 86t-172 63.5 q-61 -61 -61 -141z" />
<glyph unicode="&#xa9;" horiz-adv-x="1568" d="M61 715q0 233 103.5 405t265.5 254t354 82q311 0 517 -196.5t206 -544.5q0 -340 -211 -541t-512 -201q-297 0 -510 200t-213 542zM152 715q0 -324 181 -498t451 -174q172 0 312.5 71.5t229.5 227.5t89 373q0 164 -53 295t-143.5 210.5t-202 121.5t-232 42t-232.5 -42 t-202 -121.5t-144 -210.5t-54 -295zM414 698q0 135 35.5 236.5t96 155t125 78t132.5 24.5q66 0 131 -23.5t98 -46.5l33 -24l-35 -62q-92 55 -205 56q-139 0 -216 -89.5t-77 -304.5q0 -203 75 -289.5t222 -86.5q61 0 113.5 15t73.5 32l22 16l45 -63q-10 -10 -31.5 -28 t-93 -45.5t-153.5 -27.5q-160 0 -275.5 115.5t-115.5 361.5z" />
<glyph unicode="&#xab;" horiz-adv-x="782" d="M41 492q104 180 193.5 310t125.5 169l37 39l70 -41l-281 -486l273 -473l-58 -35q-14 12 -40.5 42t-121 162.5t-198.5 312.5zM330 494q104 180 190 302t119 154l35 31l59 -35l-258 -444l266 -457l-69 -41q-12 10 -36 34.5t-113 150t-193 305.5z" />
<glyph unicode="&#xac;" horiz-adv-x="888" d="M41 596v125h807v-330h-129v205h-678z" />
<glyph unicode="&#xad;" horiz-adv-x="696" d="M41 471v125h614v-125h-614z" />
<glyph unicode="&#xae;" horiz-adv-x="1568" d="M61 715q0 233 103.5 405t265.5 254t354 82q311 0 517 -196.5t206 -544.5q0 -340 -211 -541t-512 -201q-297 0 -510 200t-213 542zM152 715q0 -324 181 -498t451 -174q172 0 312.5 71.5t229.5 227.5t89 373q0 164 -53 295t-143.5 210.5t-202 121.5t-232 42t-232.5 -42 t-202 -121.5t-144 -210.5t-54 -295zM510 242v934h231q358 0 359 -271q0 -207 -201 -262l201 -401h-111l-194 385q-16 -2 -54 -2h-127v-383h-104zM614 719h117q266 0 266 186q0 57 -21.5 94t-63.5 53.5t-83 22.5t-98 6h-117v-362z" />
<glyph unicode="&#xb0;" horiz-adv-x="808" d="M41 1030q0 201 108.5 313.5t258.5 112.5q147 0 253.5 -112.5t106.5 -313.5q0 -199 -108.5 -311.5t-258.5 -112.5q-147 0 -253.5 111.5t-106.5 312.5zM174 1030q0 -311 227 -311q233 0 233.5 311t-226.5 311q-104 0 -169 -75.5t-65 -235.5z" />
<glyph unicode="&#xb1;" horiz-adv-x="1187" d="M41 109v124h1106v-124h-1106zM41 803v125h487v405h131v-405h488v-125h-488v-406h-131v406h-487z" />
<glyph unicode="&#xb5;" horiz-adv-x="935" d="M102 -444v1398h123v-473q0 -176 49.5 -282.5t155.5 -106.5q131 0 279 193v669h125v-954h-101q-10 74 -18 145q-139 -168 -293 -168q-121 0 -197 99v-520h-123z" />
<glyph unicode="&#x3bc;" horiz-adv-x="935" d="M102 -444v1398h123v-473q0 -176 49.5 -282.5t155.5 -106.5q131 0 279 193v669h125v-954h-101q-10 74 -18 145q-139 -168 -293 -168q-121 0 -197 99v-520h-123z" />
<glyph unicode="&#xb6;" horiz-adv-x="946" d="M61 1036q0 176 126 287t286 111h371v-1878h-115v1753h-141v-1753h-115v1089q-156 0 -284 112.5t-128 278.5z" />
<glyph unicode="&#xb7;" horiz-adv-x="512" d="M152 719q0 41 30.5 70.5t73.5 29.5q45 0 74.5 -29.5t29.5 -70.5t-29.5 -71t-74.5 -30q-43 0 -73.5 30t-30.5 71z" />
<glyph unicode="&#xbb;" horiz-adv-x="782" d="M41 45l266 457l-258 444l60 35q12 -8 36.5 -32.5t113.5 -149.5t194 -305q-104 -180 -190.5 -303t-119.5 -154l-32 -33zM315 969l70 41q14 -12 41 -42t119 -163t196 -313q-104 -180 -194 -309.5t-129 -168.5l-37 -39l-57 35l272 473z" />
<glyph unicode="&#xd7;" horiz-adv-x="1069" d="M41 215l401 401l-401 402l92 92l402 -401l401 401l92 -92l-401 -402l401 -401l-92 -92l-401 401l-402 -401z" />
<glyph unicode="&#xf7;" horiz-adv-x="1187" d="M41 553v125h1106v-125h-1106zM494 201q0 39 29.5 66.5t70.5 27.5t69.5 -27.5t28.5 -66.5q0 -41 -28.5 -69t-69.5 -28t-70.5 29t-29.5 68zM494 1030q0 39 29.5 67.5t70.5 28.5t69.5 -27.5t28.5 -68.5q0 -39 -28.5 -66.5t-69.5 -27.5t-70.5 27.5t-29.5 66.5z" />
<glyph unicode="&#x401;" horiz-adv-x="1007" d="M102 0v1434h836v-125h-707v-506h603v-125h-603v-553h715v-125h-844zM260 1640.5q0 34.5 25.5 59t62.5 24.5q35 0 60.5 -24.5t25.5 -59t-25.5 -59.5t-60.5 -25q-37 0 -62.5 25t-25.5 59.5zM614 1640.5q0 34.5 27 59t61 24.5q37 0 63 -24.5t26 -59t-26 -59.5t-63 -25 q-35 0 -61.5 25t-26.5 59.5z" />
<glyph unicode="&#x402;" horiz-adv-x="1310" d="M0 1309v125h766v-125h-766zM295 0v1434h131v-598q168 68 410 67q213 0 313 -109.5t100 -304.5v-223q0 -63 -3 -109t-20.5 -118t-49 -119t-94 -85t-150.5 -42l-14 78q109 31 154.5 117t45.5 278v223q0 299 -293 299q-117 0 -216 -13t-142 -27l-41 -15v-733h-131z" />
<glyph unicode="&#x403;" horiz-adv-x="950" d="M102 0v1434h807v-125h-678v-1309h-129zM428 1495l205 307h178l-258 -307h-125z" />
<glyph unicode="&#x404;" horiz-adv-x="1140" d="M41 113l39 80q18 -10 50 -25.5t129 -42.5t194 -27q440 0 458 576h-653v123h653q-12 297 -130.5 415.5t-329.5 118.5q-78 0 -159 -20.5t-124 -40.5l-41 -21l-39 80q20 14 55 35.5t142.5 56.5t212.5 35q109 0 199.5 -30.5t177 -106.5t135.5 -225.5t49 -362.5 q0 -203 -46 -353.5t-126 -236.5t-177.5 -127t-209.5 -41q-127 0 -242 35t-166 70z" />
<glyph unicode="&#x405;" horiz-adv-x="1091" d="M61 106l41 87q195 -94 402 -95q383 0 383 273q0 106 -82 168.5t-268 124.5l-135.5 47t-119 55t-105.5 75t-63.5 97t-27.5 133q0 182 128 283.5t337 101.5q106 0 212.5 -23.5t160.5 -46.5l53 -22l-29 -88q-166 55 -354 55q-367 0 -367 -252q0 -59 24.5 -103t77 -75 t99.5 -49t125 -43q14 -4 20 -6q240 -80 348.5 -174t108.5 -271q0 -180 -129 -282.5t-342 -102.5q-152 0 -276.5 34t-171.5 67z" />
<glyph unicode="&#x406;" d="M102 0v1434h129v-1434h-129z" />
<glyph unicode="&#x407;" d="M-98 1640.5q0 34.5 25.5 59t62.5 24.5q35 0 60.5 -24.5t25.5 -59t-25.5 -59.5t-60.5 -25q-37 0 -62.5 25t-25.5 59.5zM102 0v1434h129v-1434h-129zM256 1640.5q0 34.5 26.5 59t61.5 24.5q37 0 62.5 -24.5t25.5 -59t-25.5 -59.5t-62.5 -25q-35 0 -61.5 25t-26.5 59.5z" />
<glyph unicode="&#x408;" horiz-adv-x="462" d="M0 68q117 33 174 115.5t57 265.5v985h129v-985q0 -57 -6 -109.5t-27.5 -120t-56 -118t-101.5 -87.5t-155 -41z" />
<glyph unicode="&#x409;" horiz-adv-x="1976" d="M0 70q125 37 188.5 145.5t95 391t31.5 827.5h820v-590h227q553 0 553 -418q0 -211 -142.5 -318.5t-410.5 -107.5h-356v1309h-560q0 -260 -5 -434.5t-22.5 -332t-46 -251.5t-76.5 -167t-114.5 -105.5t-161.5 -43.5zM1135 125h227q68 0 121 5t110.5 24.5t94 50.5t61.5 87 t25 134t-24 133t-59.5 86t-94 48.5t-110.5 22.5t-124 5h-227v-596z" />
<glyph unicode="&#x40a;" horiz-adv-x="1957" d="M102 0v1434h129v-588h754v588h131v-590h227q553 0 553 -418q0 -211 -142 -318.5t-411 -107.5h-358v721h-754v-721h-129zM1116 125h227q68 0 121.5 5t110.5 24.5t94 50.5t61.5 87t24.5 134t-23.5 133t-59.5 86t-94 48.5t-110.5 22.5t-124.5 5h-227v-596z" />
<glyph unicode="&#x40b;" horiz-adv-x="1331" d="M0 1309v125h766v-125h-766zM295 0v1434h131v-598q168 68 410 67q213 0 313 -109.5t100 -304.5v-489h-131v489q0 299 -293 299q-117 0 -216 -13t-142 -27l-41 -15v-733h-131z" />
<glyph unicode="&#x40c;" horiz-adv-x="1103" d="M102 0v1434h131v-625h177q66 0 99.5 6t67 32.5t55 80t44.5 145.5q53 231 136 307t228 76l11 -88q-92 -20 -139.5 -84.5t-88.5 -210.5q-41 -150 -84 -220.5t-118 -98.5q68 -23 110.5 -77t64 -110.5t54.5 -177.5q43 -150 93 -223.5t140 -95.5l-20 -97q-139 0 -223 91.5 t-138 324.5q-41 182 -98 237.5t-178 55.5h-193v-682h-131zM430 1434l205 307h178l-258 -307h-125z" />
<glyph unicode="&#x40e;" horiz-adv-x="1173" d="M41 1434h143l437 -961l368 961h144l-453 -1178q-55 -141 -123 -212t-176 -71q-111 0 -199 84l37 76q70 -41 143 -41q61 0 104.5 43t86.5 158l2 10zM283 1755h125q0 -63 47 -109.5t145 -46.5q92 0 141.5 47.5t49.5 108.5h124q0 -109 -82.5 -186.5t-232.5 -77.5 q-166 0 -241.5 75.5t-75.5 188.5z" />
<glyph unicode="&#x40f;" horiz-adv-x="1161" d="M102 0v1434h131v-1309h697v1309h129v-1434h-410l-10 -375h-117l-10 375h-410z" />
<glyph unicode="&#x410;" horiz-adv-x="1165" d="M41 0l455 1434h131l497 -1434h-139l-149 434h-527l-137 -434h-131zM346 551h449l-234 676z" />
<glyph unicode="&#x411;" horiz-adv-x="1128" d="M102 0v1434h867v-125h-731v-447h305q272 0 398 -107.5t126 -328.5q0 -201 -132 -313.5t-392 -112.5h-441zM238 125h305q84 0 145.5 11t119.5 43t88 95.5t30 159.5q0 98 -29 160.5t-86 92.5t-117.5 40t-150.5 10h-305v-612z" />
<glyph unicode="&#x412;" horiz-adv-x="1142" d="M102 0v1434h418q475 0 475 -355q0 -80 -24.5 -141t-59 -91t-69.5 -48.5t-60 -20.5l-24 -4v-6q12 -2 32.5 -6t72.5 -26.5t92 -56.5t73 -104.5t33 -160.5q0 -205 -115 -309.5t-381 -104.5h-463zM231 125h334q70 0 115 4t95 20.5t79 47t47.5 85t18.5 132.5 q0 145 -89.5 211.5t-238.5 66.5h-361v-567zM231 817h318q135 0 224 68.5t89 193.5t-83 178.5t-259 53.5h-289v-494z" />
<glyph unicode="&#x413;" horiz-adv-x="950" d="M102 0v1434h807v-125h-678v-1309h-129z" />
<glyph unicode="&#x414;" horiz-adv-x="1284" d="M20 125h103q106 94 151 384t45 925h783v-1309h141v-500h-90l-47 375h-950l-45 -375h-91v500zM281 125h692v1184h-522q0 -477 -37 -765t-133 -419z" />
<glyph unicode="&#x415;" horiz-adv-x="1007" d="M102 0v1434h836v-125h-707v-506h603v-125h-603v-553h715v-125h-844z" />
<glyph unicode="&#x416;" horiz-adv-x="1757" d="M20 70q37 8 65 28.5t45 41t35.5 66.5t28.5 78l29 105q45 164 96.5 246t151.5 117q-78 29 -115 95t-82 226q-41 145 -88 210t-139 85l10 88q145 0 228.5 -75.5t136.5 -307.5q23 -92 44 -145.5t55 -80t68 -32.5t99 -6h125v625h131v-625h123q125 0 176 44t92 220 q53 229 136 306t227 77l12 -88q-92 -20 -138 -83.5t-89 -211.5q-45 -162 -82 -227.5t-117 -93.5q100 -35 151.5 -116t96.5 -247q20 -74 29.5 -104.5t29 -77.5t37 -67.5t45 -41t64.5 -28.5l-21 -97q-135 0 -205.5 88.5t-126.5 327.5q-41 178 -109.5 235.5t-195.5 57.5h-135 v-682h-131v682h-137q-125 0 -193.5 -58.5t-109.5 -234.5q-57 -240 -128 -328t-206 -88z" />
<glyph unicode="&#x417;" horiz-adv-x="1073" d="M41 98l37 84q174 -88 399 -88q199 0 285 86t86 215q0 141 -78 225.5t-242 84.5h-223v122h217q143 0 216 75t73 194q0 117 -92 178t-246 61q-90 0 -179 -18.5t-134 -34.5l-43 -18l-35 79l60.5 31t147 50.5t208.5 31.5q207 0 329.5 -99.5t122.5 -264.5q0 -68 -23.5 -126.5 t-58 -92t-69.5 -57t-58 -34.5l-24 -8v-6q10 -2 29.5 -7t66.5 -32t83 -64.5t65.5 -109.5t29.5 -164q0 -195 -138 -306.5t-351 -111.5q-117 0 -232.5 32t-171.5 63z" />
<glyph unicode="&#x418;" horiz-adv-x="1245" d="M102 0v1434h129v-1223l766 1223h146v-1434h-129v1223l-766 -1223h-146z" />
<glyph unicode="&#x419;" horiz-adv-x="1245" d="M102 0v1434h129v-1223l766 1223h146v-1434h-129v1223l-766 -1223h-146zM311 1755h125q0 -63 47 -109.5t146 -46.5q92 0 141 47.5t49 108.5h125q0 -109 -83 -186.5t-232 -77.5q-166 0 -242 75.5t-76 188.5z" />
<glyph unicode="&#x41a;" horiz-adv-x="1103" d="M102 0v1434h131v-625h177q66 0 99.5 6t67 32.5t55 80t44.5 145.5q53 231 136 307t228 76l11 -88q-92 -20 -139.5 -84.5t-88.5 -210.5q-41 -150 -84 -220.5t-118 -98.5q68 -23 110.5 -77t64 -110.5t54.5 -177.5q43 -150 93 -223.5t140 -95.5l-20 -97q-139 0 -223 91.5 t-138 324.5q-41 182 -98 237.5t-178 55.5h-193v-682h-131z" />
<glyph unicode="&#x41b;" horiz-adv-x="1236" d="M0 70q125 37 188.5 145.5t95 391t31.5 827.5h820v-1434h-129v1309h-560q0 -260 -5 -434.5t-22.5 -332t-46 -251.5t-76.5 -167t-114.5 -105.5t-161.5 -43.5z" />
<glyph unicode="&#x41c;" horiz-adv-x="1495" d="M102 0v1434h129l531 -1012l500 1012h131v-1434h-131v1145l-439 -875h-118l-474 891v-1161h-129z" />
<glyph unicode="&#x41d;" horiz-adv-x="1218" d="M102 0v1434h129v-633h754v633h131v-1434h-131v676h-754v-676h-129z" />
<glyph unicode="&#x41e;" horiz-adv-x="1325" d="M82 714.5q0 366.5 160.5 554t421 187.5t420 -186.5t159.5 -555t-159.5 -555t-420 -186.5t-421 187.5t-160.5 554zM229 714.5q0 -317.5 123 -467t311.5 -149.5t311.5 149.5t123 467t-123 467t-311.5 149.5t-311.5 -149.5t-123 -467z" />
<glyph unicode="&#x41f;" horiz-adv-x="1189" d="M102 0v1434h985v-1434h-129v1309h-725v-1309h-131z" />
<glyph unicode="&#x420;" horiz-adv-x="1091" d="M102 0v1434h375q553 0 553 -418q0 -209 -139 -319.5t-414 -110.5h-239v-586h-136zM238 711h239q90 0 154.5 10t128 41t96.5 94.5t33 159.5q0 94 -34 156.5t-99.5 90t-128 37t-150.5 9.5h-239v-598z" />
<glyph unicode="&#x421;" horiz-adv-x="1142" d="M82 702q0 172 36 306.5t92 217.5t134 136t156 73.5t162 20.5q104 0 206.5 -31.5t151.5 -64.5l51 -31l-41 -80q-147 82 -323 82q-479 0 -480 -629q0 -604 484 -604q96 0 183 23.5t126 46.5l41 25l41 -80q-6 -6 -18.5 -15.5t-53.5 -33t-88 -42t-122 -34t-154 -15.5 q-115 0 -214.5 37t-185.5 117t-135 227t-49 348z" />
<glyph unicode="&#x422;" horiz-adv-x="1067" d="M41 1309v125h985v-125h-428v-1309h-129v1309h-428z" />
<glyph unicode="&#x423;" horiz-adv-x="1173" d="M41 1434h143l437 -961l368 961h144l-453 -1178q-55 -141 -123 -212t-176 -71q-111 0 -199 84l37 76q70 -41 143 -41q61 0 104.5 43t86.5 158l2 10z" />
<glyph unicode="&#x424;" horiz-adv-x="1542" d="M61 745.5q0 176.5 56.5 307.5t152 202.5t204 105.5t228.5 34v121h138v-121q121 0 229.5 -34t203.5 -105.5t151.5 -202.5t56.5 -307.5t-56.5 -307.5t-151.5 -202.5t-203.5 -105.5t-229.5 -34v-155h-138v155q-121 0 -229 34t-203.5 105.5t-152 202.5t-56.5 307.5z M211 745.5q0 -120.5 31.5 -215t81 -151.5t117 -94t131 -50.5t130.5 -13.5v1049q-68 0 -131 -13.5t-130.5 -50.5t-117 -94t-81 -151.5t-31.5 -215zM840 221q68 0 131 13.5t130.5 50.5t117 94t81 151.5t31.5 215t-31.5 215t-81 151.5t-117 94t-131 50.5t-130.5 13.5v-1049z " />
<glyph unicode="&#x425;" horiz-adv-x="1126" d="M0 0l475 723l-463 711h158l383 -588h20l383 588h158l-463 -711l475 -723h-157l-406 616l-405 -616h-158z" />
<glyph unicode="&#x426;" horiz-adv-x="1241" d="M102 0v1434h131v-1309h697v1309h129v-1309h141v-500h-92l-45 375h-961z" />
<glyph unicode="&#x427;" horiz-adv-x="1138" d="M82 944v490h131v-490q0 -299 293 -299q117 0 216 13.5t142 27.5l41 14v734h131v-1434h-131v598q-168 -68 -409 -68q-213 0 -313.5 109.5t-100.5 304.5z" />
<glyph unicode="&#x428;" horiz-adv-x="1669" d="M102 0v1434h131v-1309h537v1309h129v-1309h537v1309h131v-1434h-1465z" />
<glyph unicode="&#x429;" horiz-adv-x="1748" d="M102 0v1434h131v-1309h537v1309h129v-1309h539v1309h129v-1309h141v-500h-90l-45 375h-1471z" />
<glyph unicode="&#x42a;" horiz-adv-x="1376" d="M20 1309v125h488v-590h254q553 0 553 -418q0 -211 -142.5 -318.5t-410.5 -107.5h-389v1309h-353zM508 125h254q88 0 151.5 10t128 40t98.5 92.5t34 158.5q0 78 -24 133t-59.5 86t-94 48.5t-110.5 22.5t-124 5h-254v-596z" />
<glyph unicode="&#x42b;" horiz-adv-x="1435" d="M102 0v1434h138v-590h225q553 0 553 -418q0 -211 -142.5 -318.5t-410.5 -107.5h-363zM240 125h225q68 0 121 5t110.5 24.5t94 50.5t61.5 87t25 134t-24 133t-59.5 86t-94 48.5t-110.5 22.5t-124 5h-225v-596zM1202 0v1434h131v-1434h-131z" />
<glyph unicode="&#x42c;" horiz-adv-x="1079" d="M102 0v1434h136v-590h227q553 0 553 -418q0 -211 -142.5 -318.5t-410.5 -107.5h-363zM238 125h227q68 0 121 5t110.5 24.5t94 50.5t61.5 87t25 134t-24 133t-59.5 86t-94 48.5t-110.5 22.5t-124 5h-227v-596z" />
<glyph unicode="&#x42d;" horiz-adv-x="1140" d="M41 113l39 80q18 -10 50 -25.5t129 -42.5t194 -27q440 0 458 576h-653v123h653q-12 297 -130.5 415.5t-329.5 118.5q-78 0 -159 -20.5t-124 -40.5l-41 -21l-39 80q20 14 55 35.5t142.5 56.5t212.5 35q109 0 199.5 -30.5t177 -106.5t135.5 -225.5t49 -362.5 q0 -203 -46 -353.5t-126 -236.5t-177.5 -127t-209.5 -41q-127 0 -242 35t-166 70z" />
<glyph unicode="&#x42e;" horiz-adv-x="1642" d="M102 0v1434h131v-633h224q18 330 163.5 492.5t387.5 162.5q256 0 404.5 -185.5t148.5 -556t-148.5 -556t-404.5 -185.5q-250 0 -397.5 175.5t-155.5 527.5h-222v-676h-131zM604 714.5q0 -321.5 110.5 -469t293 -147.5t292 147.5t109.5 469t-109.5 469t-292 147.5 t-293 -147.5t-110.5 -469z" />
<glyph unicode="&#x42f;" horiz-adv-x="1167" d="M41 68q102 35 151.5 85t81.5 181q55 221 179 289q-326 70 -326 393q0 418 539 418h399v-1434h-137v588h-131q-74 0 -119 -5t-103.5 -28t-95.5 -78t-55 -143q-18 -94 -49 -162t-65 -105.5t-81 -59t-86 -28t-90 -6.5zM270 1016q0 -96 31 -159.5t90.5 -93.5t121.5 -40 t153 -10h262v596h-262q-70 0 -120 -5.5t-105.5 -21.5t-90.5 -47t-57.5 -86t-22.5 -133z" />
<glyph unicode="&#x430;" horiz-adv-x="907" d="M72 233q0 94 50 160t189.5 111t368.5 47v12q0 174 -53.5 236.5t-190.5 62.5q-57 0 -126.5 -13t-110.5 -28l-41 -14l-27 76q158 84 336 84q172 0 255 -89.5t83 -314.5v-563h-100q-12 74 -19 145q-152 -156 -330 -155q-129 0 -206.5 65t-77.5 178zM197 242q0 -76 47 -112 t121 -36q168 0 315 178v179q-240 -2 -361.5 -49t-121.5 -160z" />
<glyph unicode="&#x431;" horiz-adv-x="956" d="M102 451v286q0 137 28 241.5t71 170t113.5 113t138 72t161.5 44.5l256 56l25 -113l-199 -43q-147 -31 -235 -72t-138.5 -108.5t-68.5 -147.5t-27 -213q102 160 310 160q158 0 255 -116.5t97 -329.5q0 -221 -102.5 -347.5t-294.5 -126.5q-170 0 -280 125.5t-110 348.5z M227 451q0 -180 69 -269.5t196 -89.5q270 0 270 359q0 160 -60.5 250t-173.5 90q-106 0 -191 -73t-110 -163v-104z" />
<glyph unicode="&#x432;" horiz-adv-x="870" d="M102 0v954h347q131 0 212.5 -60t81.5 -179q0 -74 -36.5 -125t-73.5 -66l-37 -14v-4q8 0 22.5 -3t51.5 -19.5t65.5 -39t51 -68.5t22.5 -106q0 -131 -84 -200.5t-213 -69.5h-410zM227 102h248q121 0 168 45.5t47 128.5q0 168 -227 168h-236v-342zM227 553h228q78 0 126 44 t48 114q0 141 -207 141h-195v-299z" />
<glyph unicode="&#x433;" horiz-adv-x="720" d="M102 0v954h578v-106h-453v-848h-125z" />
<glyph unicode="&#x434;" horiz-adv-x="985" d="M20 109h62q74 53 110.5 242.5t36.5 602.5h609v-845h106v-398h-82l-45 289h-670l-45 -289h-82v398zM231 109h482v739h-365q0 -264 -22.5 -448.5t-94.5 -290.5z" />
<glyph unicode="&#x435;" horiz-adv-x="876" d="M61 467q0 231 124 371.5t292 140.5q96 0 166 -44t105.5 -121t51 -160t15.5 -179l-629 -10q0 -186 98.5 -282.5t227.5 -96.5q72 0 137.5 12.5t93.5 24.5l29 10l27 -72q-125 -84 -310 -84q-193 0 -310.5 130.5t-117.5 359.5zM190 545q166 27 500 35q-4 125 -59.5 211 t-153.5 86q-102 0 -185.5 -90t-101.5 -242z" />
<glyph unicode="&#x436;" horiz-adv-x="1312" d="M20 82q74 20 114 64t59 149q23 111 77 166q16 16 38 27.5t36 15.5l12 2v4q-43 6 -86 43q-57 51 -71 139q-8 55 -22.5 92t-38 56.5t-40 26.5t-49.5 18l17 82q109 0 168 -51.5t96 -221.5q16 -80 63 -108.5t123 -28.5h78v397h125v-397h78q76 0 123 28.5t63 108.5 q37 170 96.5 221.5t167.5 51.5l17 -82q-33 -10 -49.5 -17.5t-40 -27t-38 -56t-22.5 -92.5q-14 -88 -72 -139q-18 -16 -39.5 -26.5t-33.5 -14.5l-13 -2v-4q47 -6 86 -45q55 -55 78 -166q18 -104 58.5 -148.5t113.5 -64.5l-22 -92q-119 0 -179.5 61.5t-99.5 243.5 q-12 55 -31.5 89t-50 48t-57.5 17.5t-76 3.5h-57v-453h-125v453h-57q-49 0 -76 -3.5t-57.5 -17.5t-50 -48t-31.5 -89q-39 -182 -99.5 -243.5t-179.5 -61.5z" />
<glyph unicode="&#x437;" horiz-adv-x="811" d="M41 61l29 80q135 -55 288 -55q244 0 244 174q0 94 -46 139t-159 45h-178v115h176q88 0 133 45t45 123q0 145 -223 145q-61 0 -125.5 -12t-97.5 -24l-33 -11l-26 76q154 78 305 78q143 0 234 -66.5t91 -187.5q0 -74 -40 -126t-80 -69l-39 -16v-4q8 0 20 -3t45 -20.5 t58.5 -42t46 -73.5t20.5 -113q0 -131 -103.5 -206t-250.5 -75q-80 0 -163 21.5t-126 42.5z" />
<glyph unicode="&#x438;" horiz-adv-x="929" d="M102 0v954h125v-735l475 735h125v-954h-125v737l-475 -737h-125z" />
<glyph unicode="&#x439;" horiz-adv-x="929" d="M102 0v954h125v-735l475 735h125v-954h-125v737l-475 -737h-125zM199 1278h106q0 -55 39 -98t121 -43t120 43t38 98h108q0 -94 -69.5 -161.5t-196.5 -67.5q-141 0 -203.5 65.5t-62.5 163.5z" />
<glyph unicode="&#x43a;" horiz-adv-x="849" d="M102 0v954h125v-397h107q76 0 124 28.5t64 108.5q37 170 95.5 221.5t166.5 51.5l17 -82q-45 -14 -65.5 -25.5t-45 -52.5t-37.5 -115q-12 -82 -71 -139q-20 -16 -42 -26.5t-32 -14.5l-12 -2v-4q45 -6 84 -45q53 -53 75 -166q18 -102 60.5 -147.5t113.5 -65.5l-22 -92 q-119 0 -180.5 61.5t-102.5 243.5q-12 55 -29.5 89t-48 48t-57.5 17.5t-76 3.5h-86v-453h-125z" />
<glyph unicode="&#x43b;" horiz-adv-x="933" d="M0 82q84 23 128 97.5t65.5 255.5t21.5 519h616v-954h-124v848h-367q0 -475 -67.5 -655.5t-247.5 -202.5z" />
<glyph unicode="&#x43c;" horiz-adv-x="1177" d="M102 0v954h123l373 -663l354 663h123v-954h-123v719l-290 -559h-123l-314 569v-729h-123z" />
<glyph unicode="&#x43d;" horiz-adv-x="915" d="M102 0v954h123v-405h463v405h125v-954h-125v436h-463v-436h-123z" />
<glyph unicode="&#x43e;" horiz-adv-x="976" d="M61 477.5q0 235.5 127 368.5t304 133q174 0 298.5 -133t124.5 -369q0 -233 -126.5 -366.5t-303.5 -133.5q-174 0 -299 132.5t-125 368zM190 477q0 -193 82 -292t213 -99q135 0 218 99.5t83 291.5q0 190 -84 291.5t-210 101.5q-123 0 -212.5 -102.5t-89.5 -290.5z" />
<glyph unicode="&#x43f;" horiz-adv-x="929" d="M102 0v954h725v-954h-125v848h-475v-848h-125z" />
<glyph unicode="&#x440;" horiz-adv-x="937" d="M102 -444v1398h101q12 -74 18 -143q139 168 301 168q90 0 158 -38t104.5 -105.5t54 -146.5t17.5 -173q0 -539 -428 -539q-113 0 -201 70v-491h-125zM227 154q84 -74 193 -74q68 0 114 13t94 54t72.5 134.5t24.5 234.5q0 96 -18.5 173t-68.5 131t-126 54q-135 0 -285 -194 v-526z" />
<glyph unicode="&#x441;" horiz-adv-x="811" d="M61 469q0 229 115 369.5t285 140.5q80 0 151.5 -20.5t104.5 -40.5l33 -23l-27 -76q-102 53 -231 53q-133 0 -220.5 -113.5t-87.5 -289.5q0 -172 87 -279.5t223 -107.5q66 0 128 14.5t91 26.5l30 14l27 -76q-12 -10 -35.5 -23t-103.5 -37t-168 -24q-170 0 -286 132.5 t-116 359.5z" />
<glyph unicode="&#x442;" horiz-adv-x="817" d="M41 848v106h735v-106h-305v-848h-125v848h-305z" />
<glyph unicode="&#x443;" horiz-adv-x="835" d="M0 954h135l301 -876l271 876h129l-340 -1106q-45 -147 -116 -223t-181 -76q-104 0 -176 76l43 70q68 -39 124 -39q119 0 185 223l35 121h-84z" />
<glyph unicode="&#x444;" horiz-adv-x="1185" d="M82 467q0 254 117.5 362.5t330.5 108.5v410h125v-410q213 0 331 -108.5t118 -362.5q0 -229 -120 -339t-329 -110v-462h-125v462q-209 0 -328.5 110t-119.5 339zM213 467q0 -342 317 -342v706q-172 0 -244.5 -81.5t-72.5 -282.5zM655 125q319 0 320 342q0 199 -74 281.5 t-246 82.5v-706z" />
<glyph unicode="&#x445;" horiz-adv-x="815" d="M0 0l326 494l-303 460h141l235 -356h17l235 356h142l-304 -460l326 -494h-145l-262 395l-263 -395h-145z" />
<glyph unicode="&#x446;" horiz-adv-x="974" d="M102 0v954h125v-845h475v845h125v-845h107v-398h-82l-45 289h-705z" />
<glyph unicode="&#x447;" horiz-adv-x="888" d="M82 645v309h125v-297q0 -211 170 -211q72 0 142.5 10.5t107.5 20.5l35 10v467h124v-954h-124v383q-125 -41 -285 -41q-137 0 -216 86t-79 217z" />
<glyph unicode="&#x448;" horiz-adv-x="1298" d="M102 0v954h125v-845h361v845h123v-845h360v845h125v-845v-109h-1094z" />
<glyph unicode="&#x449;" horiz-adv-x="1341" d="M102 0v954h125v-845h359v845h125v-845h358v845h125v-845h106v-398h-81l-45 289h-1072z" />
<glyph unicode="&#x44a;" horiz-adv-x="1003" d="M20 842v112h367v-376h203q170 0 261 -77t91 -214q0 -133 -93 -210t-259 -77h-328v842h-242zM387 106h203q121 0 175 51.5t54 129.5t-53 132t-176 54h-203v-367z" />
<glyph unicode="&#x44b;" horiz-adv-x="1142" d="M102 0v954h125v-376h203q170 0 261 -77t91 -214q0 -133 -93 -210t-259 -77h-328zM227 106h203q121 0 175 51.5t54 129.5t-53 132t-176 54h-203v-367zM918 0v954h122v-954h-122z" />
<glyph unicode="&#x44c;" horiz-adv-x="843" d="M102 0v954h125v-376h203q170 0 261 -77t91 -214q0 -133 -93 -210t-259 -77h-328zM227 106h203q121 0 175 51.5t54 129.5t-53 132t-176 54h-203v-367z" />
<glyph unicode="&#x44d;" horiz-adv-x="798" d="M41 61l27 76q92 -55 243 -55q135 0 209 98.5t84 272.5h-432v100q279 0 432 -29q-6 164 -86 256t-211 92q-57 0 -115.5 -13t-87.5 -28l-28 -12l-27 76q12 10 36 23.5t98.5 37t154.5 23.5q172 0 285.5 -128t113.5 -353q0 -246 -116.5 -383.5t-288.5 -137.5q-82 0 -155 21.5 t-103 42.5z" />
<glyph unicode="&#x44e;" horiz-adv-x="1226" d="M102 0v954h123v-389h174q20 199 126 306.5t259 107.5q170 0 275.5 -130t105.5 -372q0 -240 -108.5 -370t-278.5 -130q-166 0 -271.5 124t-111.5 352h-170v-453h-123zM520 477q0 -391 258 -391t258 391q0 197 -65.5 295t-186.5 98q-119 0 -191.5 -100t-72.5 -293z" />
<glyph unicode="&#x44f;" horiz-adv-x="856" d="M41 82q55 16 78.5 25.5t50.5 41t43 87.5q23 84 55 133q18 23 37 36t27 13l10 2v2q-57 2 -109 29q-139 70 -139 229q0 121 96.5 197.5t235.5 76.5h348v-954h-123v389h-100q-49 0 -73.5 -3t-53.5 -17.5t-47.5 -46t-32.5 -86.5q-39 -143 -101.5 -194.5t-179.5 -51.5z M211 680q0 -186 270 -186h170v356h-225q-100 0 -157.5 -46t-57.5 -124z" />
<glyph unicode="&#x451;" horiz-adv-x="876" d="M61 467q0 231 124 371.5t292 140.5q96 0 166 -44t105.5 -121t51 -160t15.5 -179l-629 -10q0 -186 98.5 -282.5t227.5 -96.5q72 0 137.5 12.5t93.5 24.5l29 10l27 -72q-125 -84 -310 -84q-193 0 -310.5 130.5t-117.5 359.5zM190 545q166 27 500 35q-4 125 -59.5 211 t-153.5 86q-102 0 -185.5 -90t-101.5 -242zM195 1132.5q0 34.5 25.5 59.5t62.5 25q35 0 60.5 -25t25.5 -59.5t-26 -59t-60 -24.5q-37 0 -62.5 24.5t-25.5 59zM549 1132.5q0 34.5 26.5 59.5t61.5 25q37 0 62.5 -25t25.5 -59.5t-25.5 -59t-62.5 -24.5q-35 0 -61.5 24.5 t-26.5 59z" />
<glyph unicode="&#x452;" horiz-adv-x="997" d="M20 1087v109h175v238h124v-238h240v-109q-154 0 -240 13v-350q147 152 312 151q162 0 223 -91t61 -259v-285q0 -66 -2 -109.5t-19 -117.5t-47 -120t-92.5 -84t-150.5 -42l-14 78q109 31 155 117t46 278v285q0 129 -35 187.5t-135 58.5q-150 0 -302 -181v-616h-124v1087 h-175z" />
<glyph unicode="&#x453;" horiz-adv-x="720" d="M102 0v954h578v-106h-453v-848h-125zM338 1036l205 307h178l-258 -307h-125z" />
<glyph unicode="&#x454;" horiz-adv-x="798" d="M41 61l27 76q92 -55 243 -55q135 0 209 98.5t84 272.5h-432v100q279 0 432 -29q-6 164 -86 256t-211 92q-57 0 -115.5 -13t-87.5 -28l-28 -12l-27 76q12 10 36 23.5t98.5 37t154.5 23.5q172 0 285.5 -128t113.5 -353q0 -246 -116.5 -383.5t-288.5 -137.5q-82 0 -155 21.5 t-103 42.5z" />
<glyph unicode="&#x455;" horiz-adv-x="806" d="M61 68l31 67q133 -49 273 -49q260 0 260 176q0 72 -52.5 106.5t-181.5 67.5q-72 18 -119 35.5t-100 49.5t-79.5 79t-26.5 111q0 135 97 201.5t249 66.5q72 0 145.5 -16.5t112.5 -32.5l39 -15l-25 -69q-117 29 -246 28q-252 0 -252 -157q0 -78 111 -119q25 -10 121 -39 q94 -29 137 -46t96.5 -52t73.5 -84t20 -123q0 -131 -98 -204t-246 -73q-102 0 -187 23t-120 45z" />
<glyph unicode="&#x456;" horiz-adv-x="354" d="M102 1186q0 29 22.5 50t53.5 21t52.5 -21.5t21.5 -49.5q0 -31 -21.5 -51.5t-52.5 -20.5t-53.5 20.5t-22.5 51.5zM115 0v954h125v-954h-125z" />
<glyph unicode="&#x457;" horiz-adv-x="354" d="M-88 1132.5q0 34.5 25.5 59.5t62.5 25q35 0 60.5 -25t25.5 -59.5t-25.5 -59t-60.5 -24.5q-37 0 -62.5 24.5t-25.5 59zM115 0v954h125v-954h-125zM266 1132.5q0 34.5 26.5 59.5t61.5 25q37 0 62.5 -25t25.5 -59.5t-25.5 -59t-62.5 -24.5q-35 0 -61.5 24.5t-26.5 59z" />
<glyph unicode="&#x458;" horiz-adv-x="399" d="M-41 -395q109 31 155 116.5t46 278.5v954h125v-954q0 -66 -2 -110t-19.5 -117.5t-47.5 -119.5t-92.5 -84t-150.5 -42zM147 1186q0 29 21.5 50t54.5 21q31 0 52.5 -21.5t21.5 -49.5q0 -31 -21.5 -51.5t-52.5 -20.5q-33 0 -54.5 20.5t-21.5 51.5z" />
<glyph unicode="&#x459;" horiz-adv-x="1447" d="M0 82q84 23 128 97.5t65.5 255.5t21.5 519h616v-376h203q170 0 261 -77t91 -214q0 -133 -93 -210t-259 -77h-327v848h-367q0 -475 -67.5 -655.5t-247.5 -202.5zM831 106h203q121 0 175.5 51.5t54.5 129.5t-53.5 132t-176.5 54h-203v-367z" />
<glyph unicode="&#x45a;" horiz-adv-x="1429" d="M102 0v954h123v-368h463v368h125v-376h203q170 0 261 -77t91 -214q0 -133 -93 -210t-259 -77h-328v473h-463v-473h-123zM813 106h203q121 0 175 51.5t54 129.5t-53 132t-176 54h-203v-367z" />
<glyph unicode="&#x45b;" horiz-adv-x="997" d="M20 1087v109h175v238h124v-238h240v-109q-154 0 -240 13v-350q147 152 312 151q162 0 223 -91t61 -259v-551h-124v551q0 129 -35 187.5t-135 58.5q-150 0 -302 -181v-616h-124v1087h-175z" />
<glyph unicode="&#x45c;" horiz-adv-x="849" d="M102 0v954h125v-397h107q76 0 124 28.5t64 108.5q37 170 95.5 221.5t166.5 51.5l17 -82q-45 -14 -65.5 -25.5t-45 -52.5t-37.5 -115q-12 -82 -71 -139q-20 -16 -42 -26.5t-32 -14.5l-12 -2v-4q45 -6 84 -45q53 -53 75 -166q18 -102 60.5 -147.5t113.5 -65.5l-22 -92 q-119 0 -180.5 61.5t-102.5 243.5q-12 55 -29.5 89t-48 48t-57.5 17.5t-76 3.5h-86v-453h-125zM338 975l205 307h178l-258 -307h-125z" />
<glyph unicode="&#x45e;" horiz-adv-x="835" d="M0 954h135l301 -876l271 876h129l-340 -1106q-45 -147 -116 -223t-181 -76q-104 0 -176 76l43 70q68 -39 124 -39q119 0 185 223l35 121h-84zM156 1278h106q0 -55 39 -98t121 -43t120 43t38 98h108q0 -94 -69.5 -161.5t-196.5 -67.5q-141 0 -203.5 65.5t-62.5 163.5z" />
<glyph unicode="&#x45f;" horiz-adv-x="929" d="M102 0v954h125v-845h475v845h125v-954h-299l-12 -289h-102l-13 289h-299z" />
<glyph unicode="&#x490;" horiz-adv-x="950" d="M102 0v1434h678v204h129v-329h-678v-1309h-129z" />
<glyph unicode="&#x491;" horiz-adv-x="720" d="M102 0v954h453v183h125v-289h-453v-848h-125z" />
<glyph unicode="&#x2000;" horiz-adv-x="901" />
<glyph unicode="&#x2001;" horiz-adv-x="1802" />
<glyph unicode="&#x2002;" horiz-adv-x="901" />
<glyph unicode="&#x2003;" horiz-adv-x="1802" />
<glyph unicode="&#x2004;" horiz-adv-x="600" />
<glyph unicode="&#x2005;" horiz-adv-x="450" />
<glyph unicode="&#x2006;" horiz-adv-x="299" />
<glyph unicode="&#x2007;" horiz-adv-x="299" />
<glyph unicode="&#x2008;" horiz-adv-x="225" />
<glyph unicode="&#x2009;" horiz-adv-x="360" />
<glyph unicode="&#x200a;" horiz-adv-x="98" />
<glyph unicode="&#x2010;" horiz-adv-x="696" d="M41 471v125h614v-125h-614z" />
<glyph unicode="&#x2011;" horiz-adv-x="696" d="M41 471v125h614v-125h-614z" />
<glyph unicode="&#x2012;" horiz-adv-x="696" d="M41 471v125h614v-125h-614z" />
<glyph unicode="&#x2013;" horiz-adv-x="1122" d="M41 471v125h1040v-125h-1040z" />
<glyph unicode="&#x2014;" horiz-adv-x="1372" d="M41 471v125h1290v-125h-1290z" />
<glyph unicode="&#x2018;" horiz-adv-x="327" d="M102 807q0 209 13.5 365.5t27.5 207.5l13 54h69v-627h-123z" />
<glyph unicode="&#x2019;" d="M102 1434h129v-627h-79q-50 156 -50 627z" />
<glyph unicode="&#x201a;" d="M102 266h129v-626h-79q-50 155 -50 626z" />
<glyph unicode="&#x201c;" horiz-adv-x="571" d="M102 807q0 209 13.5 365.5t27.5 207.5l13 54h69v-627h-123zM344 807v627h125v-627h-125z" />
<glyph unicode="&#x201d;" horiz-adv-x="565" d="M102 1434h129v-627h-79q-50 156 -50 627zM344 807v627h119v-627h-119z" />
<glyph unicode="&#x201e;" horiz-adv-x="565" d="M102 266h129v-626h-79q-50 155 -50 626zM344 266h119v-626h-119v626z" />
<glyph unicode="&#x2020;" horiz-adv-x="825" d="M41 942v125h307v510h129v-510h307v-125h-307v-1085h-129v1085h-307z" />
<glyph unicode="&#x2021;" horiz-adv-x="825" d="M41 307v125h307v569h-307v125h307v451h129v-451h307v-125h-307v-569h307v-125h-307v-450h-129v450h-307z" />
<glyph unicode="&#x2022;" horiz-adv-x="655" d="M102 716.5q0 100.5 62.5 163t163 62.5t163 -62.5t62.5 -163t-62.5 -162.5t-163 -62t-163 62t-62.5 162.5z" />
<glyph unicode="&#x2026;" horiz-adv-x="1159" d="M61 74q0 41 31 70.5t74 29.5q45 0 74.5 -29.5t29.5 -70.5t-29.5 -71t-74.5 -30q-43 0 -74 30t-31 71zM475 74q0 41 31 70.5t74 29.5q45 0 74.5 -29.5t29.5 -70.5t-29.5 -71t-74.5 -30q-43 0 -74 30t-31 71zM889 74q0 41 30.5 70.5t73.5 29.5q45 0 75 -29.5t30 -70.5 t-30 -71t-75 -30q-43 0 -73.5 30t-30.5 71z" />
<glyph unicode="&#x202f;" horiz-adv-x="360" />
<glyph unicode="&#x2030;" horiz-adv-x="2533" d="M61 1030q0 201 109 313.5t258 112.5q147 0 253.5 -112.5t106.5 -313.5q0 -199 -108.5 -311.5t-257.5 -112.5q-147 0 -254 111.5t-107 312.5zM195 1030q0 -311 227 -311q233 0 233 311t-227 311q-104 0 -168.5 -75.5t-64.5 -235.5zM244 0l1083 1434h152l-1082 -1434h-153z M936 397q0 199 107.5 312.5t257 113.5t256 -112.5t106.5 -313.5q0 -199 -108.5 -311.5t-258.5 -112.5q-147 0 -253.5 111.5t-106.5 312.5zM1069 397q0 -311 227 -311q233 0 233.5 311.5t-229.5 311.5q-102 0 -166.5 -76t-64.5 -236zM1745 399q0 199 107.5 312.5t257 113.5 t256 -112.5t106.5 -313.5q0 -199 -108.5 -311.5t-258.5 -112.5q-147 0 -253.5 111.5t-106.5 312.5zM1878 399q0 -311 227 -311q233 0 233.5 311.5t-229.5 311.5q-102 0 -166.5 -76t-64.5 -236z" />
<glyph unicode="&#x2039;" horiz-adv-x="1044" d="M41 481v103l963 495v-135l-799 -412l799 -411v-135z" />
<glyph unicode="&#x203a;" horiz-adv-x="1044" d="M41 -14v135l799 411l-799 412v135l963 -495v-103z" />
<glyph unicode="&#x205f;" horiz-adv-x="450" />
<glyph unicode="&#x20ac;" horiz-adv-x="1110" d="M0 535l29 98h151v69v78h-180l29 99h159q18 162 69.5 279.5t123.5 180t143.5 90t149.5 27.5q104 0 188 -31.5t117 -64.5l31 -31l-49 -74q-92 78 -242 78q-332 0 -385 -454h592l-29 -99h-569q-2 -25 -2 -78v-69h542l-28 -98h-506q25 -231 121 -334t268 -103 q82 0 154.5 22.5t105.5 47.5l31 22l55 -77q-4 -6 -12 -15.5t-41 -33t-72 -42t-108.5 -34t-149.5 -15.5q-195 0 -331 132.5t-167 429.5h-188z" />
<glyph unicode="&#x2116;" horiz-adv-x="2039" d="M102 0v1434h146l766 -1225v1225h129v-1434h-146l-766 1225v-1225h-129zM1251 1030q0 201 108.5 313.5t258.5 112.5q147 0 253.5 -112.5t106.5 -313.5q0 -199 -108.5 -311.5t-257.5 -112.5q-147 0 -254 111.5t-107 312.5zM1292 387v125h645v-125h-645zM1384 1030 q0 -311 228 -311q233 0 233 311t-227 311q-104 0 -169 -75.5t-65 -235.5z" />
<glyph unicode="&#x2122;" horiz-adv-x="1204" d="M0 1350v84h479v-84h-192v-521h-97v521h-190zM537 829v605h94l225 -408l213 408h94v-605h-94v418l-172 -325h-78l-188 331v-424h-94z" />
<glyph unicode="&#x2260;" horiz-adv-x="1187" d="M41 309v125h313l314 359h-627v125h733l146 165h165l-145 -165h207v-125h-316l-311 -359h627v-125h-735l-140 -159h-166l142 159h-207z" />
<glyph unicode="&#x2264;" horiz-adv-x="1202" d="M61 0v125h1080v-125h-1080zM61 653v103l1080 418v-142l-887 -325l887 -355v-137z" />
<glyph unicode="&#x2265;" horiz-adv-x="1202" d="M61 0v125h1080v-125h-1080zM61 215v137l887 355l-887 325v142l1080 -418v-103z" />
<glyph unicode="&#xe000;" horiz-adv-x="955" d="M0 955h955v-955h-955v955z" />
<glyph horiz-adv-x="696" d="M41 471v125h614v-125h-614z" />
<glyph horiz-adv-x="4802" d="M41 0v655l655 -655h-655zM338 727l655 655v-655h-655zM696 0v328l656 -328h-656zM696 328v327h656zM1044 1054.5q0 145.5 101.5 247t247 101.5t247 -101.5t101.5 -247t-101.5 -246.5t-247 -101t-247 101t-101.5 246.5zM1372 0v655l328 -655h-328zM1679 1382h656 l-328 -655zM1700 0l328 655v-655h-328zM2079 327.5q0 145.5 101 247t246.5 101.5t247 -101.5t101.5 -247t-101.5 -246.5t-247 -101t-246.5 101t-101 246.5zM2099 727l328 655l328 -655h-656zM2775 727v604l584 -604h-584zM2826 0v604l584 -604h-584zM2826 1382h584v-604z M2877 655h584v-604zM3482 0l327 655l328 -655h-655zM3492 727v604l584 -604h-584zM3543 1382h584v-604zM4147 1382h656l-328 -655zM4157 -20v696q145 0 247 -101.5t102 -247t-102 -246.5t-247 -101z" />
<glyph horiz-adv-x="512" />
<glyph horiz-adv-x="512" />
</font>
</defs>
</svg>
