<svg xmlns="http://www.w3.org/2000/svg" xmlns:vectornator="http://vectornator.io" xmlns:xlink="http://www.w3.org/1999/xlink" stroke-miterlimit="10" style="fill-rule:nonzero;clip-rule:evenodd;stroke-linecap:round;stroke-linejoin:round;" version="1.1" xml:space="preserve" viewBox="216.34 177.79 571.25 648.44">
<defs/>
<g id="Layer-1" vectornator:layerName="Layer 1">
<g opacity="1" vectornator:layerName="Curve 2">
<path d="M661.094 219.312C660.442 219.324 659.79 219.437 659.156 219.719C639.565 226.93 618.994 230.516 598.688 235.062C589.401 237.141 580.183 239.502 570.969 241.875C557.087 245.449 543.25 249.229 529.5 253.281C511.868 258.477 494.367 264.103 477 270.125C451.208 279.068 425.554 288.522 399.312 296.094C388.444 299.23 377.508 302.004 366.469 304.469C353.167 308.368 345.539 322.292 349.438 335.594C353.336 348.896 367.261 356.524 380.562 352.625C394.092 347.677 407.417 342.3 420.562 336.406C444.232 325.795 467.227 313.75 490.406 302.125C506.409 294.099 522.605 286.417 538.969 279.156C551.821 273.454 564.802 268.035 577.844 262.781C586.471 259.306 595.109 255.825 603.844 252.625C623.885 245.282 644.261 238.863 663.219 228.906C665.752 227.781 666.907 224.815 665.781 222.281C664.937 220.381 663.05 219.277 661.094 219.312Z" fill="#000000" stroke="none"/>
</g>
<g opacity="1" vectornator:layerName="Curve 3">
<path d="M480.938 180.688C477.68 180.546 474.372 181.04 471.125 182.25C458.137 187.092 451.533 201.543 456.375 214.531C458.136 217.951 459.994 221.299 462.031 224.562C462.928 225.999 463.963 227.317 464.594 228.906C465.148 230.304 465.584 231.753 466.031 233.188C466.975 236.212 467.803 239.268 468.562 242.344C471.041 252.376 472.726 262.592 474.406 272.781C477.644 292.421 480.786 312.318 488.375 330.844C491.228 337.809 494.737 344.454 498.906 350.719C500.113 353.214 503.129 354.269 505.625 353.062C508.121 351.856 509.144 348.839 507.938 346.344C506.122 340.747 504.805 335.019 504 329.188C501.987 314.6 502.964 299.774 504.469 285.188C505.823 272.061 507.526 258.957 508.344 245.781C508.703 239.989 508.876 234.178 508.781 228.375C508.718 224.509 508.585 220.644 508.031 216.812C507.058 210.081 504.712 203.662 503.406 197C499.775 187.259 490.709 181.111 480.938 180.688Z" fill="#000000" stroke="none"/>
</g>
<g opacity="1" vectornator:layerName="Curve 4">
<path d="M613.625 177.906C602.005 176.784 590.781 183.937 587.219 195.531C585.911 204.871 584.635 214.227 583.531 223.594C580.485 249.441 578.084 275.338 575.344 301.219C574.604 308.206 573.677 315.179 572.844 322.156C572.083 324.822 573.647 327.615 576.312 328.375C578.978 329.135 581.74 327.572 582.5 324.906C585.488 318.507 588.563 312.156 591.469 305.719C602.137 282.083 612.47 258.295 623.406 234.781C627.231 226.558 631.217 218.419 635.219 210.281C639.29 197.031 631.844 182.977 618.594 178.906C616.937 178.397 615.285 178.067 613.625 177.906Z" fill="#000000" stroke="none"/>
</g>
<g opacity="1" vectornator:layerName="Curve 5">
<path d="M762.156 318.344C755.207 318.526 748.265 319.13 741.344 319.875C733.399 320.73 725.477 321.744 717.562 322.844C679.764 328.096 642.514 336.381 605.531 345.688C547.485 360.294 489.677 375.84 432.469 393.469C409.835 400.443 387.254 407.68 364.875 415.438C320.565 430.798 278.437 451.945 233.438 465.375C220.303 469.806 213.226 484.053 217.656 497.188C222.087 510.322 236.334 517.368 249.469 512.938C264.847 507.138 279.901 500.571 294.75 493.531C323.003 480.137 350.552 465.252 379.312 452.938C401.119 443.601 423.162 434.817 445.281 426.25C499.779 405.141 555.026 386.053 610.531 367.781C646.563 355.92 682.925 345.051 720.062 337.188C728.091 335.487 736.142 333.894 744.219 332.438C756.709 330.185 769.383 328.56 782.094 329.25C784.855 329.498 787.315 327.48 787.562 324.719C787.81 321.958 785.761 319.498 783 319.25C776.069 318.38 769.105 318.161 762.156 318.344Z" fill="#000000" stroke="none"/>
</g>
<g opacity="1" vectornator:layerName="Curve 6">
<path d="M408.531 484.844C394.719 486.008 384.461 498.156 385.625 511.969C386.254 513.593 386.386 515.261 386.719 516.969C387.127 519.065 387.602 521.153 388.344 523.156C389.104 525.211 390.337 527.183 391.344 529.125C392.974 532.267 394.657 535.357 396.344 538.469C401.537 548.048 406.929 557.519 412.188 567.062C416.802 575.438 421.515 583.831 425.688 592.438C428.778 598.812 431.547 605.299 434.469 611.75C436.472 616.172 438.613 620.517 440.812 624.844C441.64 627.49 444.479 628.984 447.125 628.156C449.771 627.329 451.234 624.521 450.406 621.875C450.088 619.545 449.728 617.213 449.469 614.875C448.42 605.41 447.888 595.897 446.781 586.438C446.313 582.435 445.67 578.451 445.062 574.469C443.629 565.077 441.979 555.702 440.344 546.344C438.906 538.117 437.463 529.9 436.125 521.656C435.668 518.837 435.223 516.013 434.812 513.188C434.67 512.209 434.482 511.233 434.375 510.25C434.344 509.965 434.074 509.309 434.344 509.406C434.686 509.529 434.649 510.068 434.781 510.406C434.909 510.733 434.967 511.093 435.125 511.406C435.159 511.474 435.273 511.565 435.312 511.5C435.434 511.296 435.441 511.048 435.469 510.812C435.527 510.309 435.567 509.788 435.594 509.281C435.621 508.769 435.637 508.262 435.656 507.75C434.492 493.938 422.344 483.68 408.531 484.844Z" fill="#000000" stroke="none"/>
</g>
<g opacity="1" vectornator:layerName="Curve 7">
<path d="M653.938 410.781C651.478 410.806 649.017 410.905 646.594 411.031C641.238 411.311 635.898 411.574 630.562 412.125C603.624 414.909 577.78 423.515 552.188 431.938C545.827 434.031 539.464 436.131 533.062 438.094C525.846 440.306 518.6 442.359 511.344 444.438C500.669 447.495 489.96 450.462 479.188 453.156C475.804 454.003 472.399 454.779 469 455.562C467.759 455.849 466.525 456.13 465.281 456.406C464.838 456.504 464.382 456.599 463.938 456.688C463.872 456.701 463.687 456.711 463.75 456.688C463.957 456.609 464.159 456.581 464.375 456.531C464.675 456.462 465.05 456.547 465.281 456.344C465.421 456.221 464.929 456.237 464.75 456.188C464.668 456.165 464.584 456.14 464.5 456.125C463.867 456.009 463.232 455.952 462.594 455.875C461.137 455.7 459.683 455.585 458.219 455.5C444.36 455.238 432.918 466.266 432.656 480.125C432.394 493.984 443.422 505.425 457.281 505.688C458.95 505.55 460.576 505.695 462.25 505.719C464.911 505.757 467.614 505.741 470.25 505.375C473.497 504.925 476.511 503.931 479.594 502.906C482.764 501.853 485.917 500.751 489.062 499.625C498.278 496.326 507.428 492.846 516.531 489.25C529.886 483.975 543.178 478.585 556.312 472.781C574.691 464.66 592.846 456.01 611.812 449.312C619.11 446.736 626.596 444.565 634.156 442.906C637.895 442.086 641.66 441.456 645.438 440.844C648.21 440.394 650.965 439.931 653.75 439.562C657.324 439.09 660.987 438.697 664.594 439C666.169 439.133 667.827 439.289 669.125 440.219C671.531 441.942 673.171 444.563 674.375 447.219C676.263 451.383 677.23 455.929 677.844 460.438C678.592 465.927 678.731 471.497 678.656 477.031C678.479 490.189 676.313 503.208 673.625 516.062C671.016 528.539 667.615 540.832 664.625 553.219C663.723 556.956 662.834 560.709 662.031 564.469C661.232 568.212 660.591 571.99 659.875 575.75C659.214 578.442 660.87 581.183 663.562 581.844C666.255 582.504 668.964 580.849 669.625 578.156C670.71 574.559 671.739 570.915 672.906 567.344C677.019 554.755 681.895 542.431 686.281 529.938C688.723 522.984 690.937 515.959 692.969 508.875C696.65 496.037 699.337 483.166 700.219 469.812C701.308 453.32 699.639 434.554 687.656 422C685.945 420.207 684.069 418.556 682 417.188C680.017 415.876 677.874 414.822 675.656 413.969C668.757 411.314 661.316 410.706 653.938 410.781Z" fill="#000000" stroke="none"/>
</g>
<g opacity="1" vectornator:layerName="Curve 8">
<path d="M533.281 356.281C521.614 356.66 511.42 365.17 509.375 377.125C509.276 380.703 508.736 384.196 508.344 387.75C507.945 391.358 507.702 394.996 507.938 398.625C508.23 403.133 509.364 407.618 510.281 412.031C511.399 417.406 512.574 422.784 513.844 428.125C516.476 439.199 519.301 450.224 522.125 461.25C524.074 468.858 526.062 476.445 527.844 484.094C529.881 492.836 531.931 501.565 533.5 510.406C535.477 521.548 536.986 532.774 538.625 543.969C539.838 552.253 541.231 560.505 542.688 568.75C542.877 571.516 545.265 573.596 548.031 573.406C550.797 573.216 552.877 570.828 552.688 568.062C552.843 563.93 552.962 559.786 553.188 555.656C554.039 540.07 555.453 524.508 556.031 508.906C556.431 498.122 556.334 487.316 556 476.531C555.467 459.313 554.641 442.098 554.25 424.875C554.119 419.09 554.048 413.318 554.094 407.531C554.109 405.632 554.147 403.711 554.188 401.812C554.212 400.651 554.175 399.498 554.312 398.344C554.323 398.253 554.396 398.15 554.469 398.094C554.514 398.059 554.581 398.13 554.625 398.094C554.774 397.968 555.019 397.382 555.062 397.281C555.467 396.354 555.812 395.388 556.156 394.438C557.212 391.527 558.089 388.588 558.875 385.594C561.212 371.931 552.038 358.962 538.375 356.625C536.667 356.333 534.948 356.227 533.281 356.281Z" fill="#000000" stroke="none"/>
</g>
<g opacity="1" vectornator:layerName="Curve 9">
<path d="M609.469 476.406C605.971 476.336 602.476 476.526 599 476.906C590.891 477.794 583.035 479.987 575.188 482.125C567.279 484.28 559.393 486.494 551.531 488.812C538.848 492.553 526.247 496.55 513.688 500.688C509.493 502.07 505.305 503.511 501.125 504.938C498.238 505.923 495.368 506.9 492.625 508.25C487.813 510.618 483.626 513.97 479.031 516.688C467.419 524.257 464.118 539.794 471.688 551.406C479.257 563.018 494.825 566.288 506.438 558.719C508.602 557.224 510.711 555.654 512.781 554.031C513.285 553.636 513.805 553.265 514.312 552.875C514.742 552.544 515.052 552.132 515.531 551.906C517.554 550.954 519.683 550.194 521.75 549.344C525.117 547.959 528.495 546.571 531.875 545.219C538.407 542.604 544.989 540.101 551.562 537.594C522.951 560.944 494.237 584.174 465.281 607.094C456.245 614.246 447.249 621.467 438.344 628.781C436.7 630.131 435.081 631.484 433.5 632.906C432.816 633.522 432.071 634.325 431.469 634.812C429.237 636.619 426.836 638.218 425.062 640.531C424.507 641.255 423.971 642.028 423.562 642.844C423.017 643.933 422.516 645.038 422.219 646.219C421.915 647.426 421.741 648.693 421.781 649.938C421.827 651.347 422.027 652.754 422.469 654.094C422.912 655.439 423.601 656.741 424.406 657.906C425.122 658.94 426.053 659.798 427 660.625C427.69 661.227 428.493 661.69 429.281 662.156C430.198 662.698 431.213 663.087 432.219 663.438C438.268 665.544 444.427 664.458 450.438 662.844C453.268 662.083 456.105 661.443 458.875 660.469C463.953 658.683 468.87 656.449 473.875 654.469C481.853 651.312 489.866 648.214 497.906 645.219C513.284 639.49 528.757 634.003 544.25 628.594C569.614 619.738 595.145 611.311 620.938 603.781C629.498 601.282 638.087 598.903 646.656 596.438C660.089 592.572 673.627 589.01 687.656 588.406C690.428 588.374 692.657 586.085 692.625 583.312C692.593 580.54 690.335 578.343 687.562 578.375C672.241 578.068 657.267 581.03 642.375 584.312C635.855 585.75 629.334 587.132 622.812 588.562C584.88 596.884 547.364 607.119 510.094 618C504.997 619.488 499.959 621.161 494.875 622.688C530.948 597.478 566.721 571.836 602.594 546.344C607.306 542.995 611.99 539.565 616.469 535.906C619.281 533.608 621.873 531.114 624.625 528.75C627.181 526.554 629.812 524.465 632.094 521.969C636.643 516.992 640.117 510.583 640.562 503.75C640.768 500.596 640.352 497.451 639.312 494.469C638.278 491.501 636.598 488.683 634.5 486.344C633.002 484.674 631.283 483.213 629.438 481.938C625.958 479.532 621.881 477.854 617.719 477.094C615.013 476.599 612.212 476.461 609.469 476.406ZM601.281 494.688C601.312 494.674 601.303 494.756 601.281 494.781C601.097 494.993 600.913 495.203 600.719 495.406C600.845 495.198 601.057 494.785 601.281 494.688Z" fill="#000000" stroke="none"/>
</g>
<g opacity="1" vectornator:layerName="Curve 10">
<path d="M347.875 695.344C336.201 695.302 325.724 703.439 323.25 715.312C323.098 719.802 322.802 724.289 322.781 728.781C322.751 735.522 322.846 742.289 322.781 749.031C322.665 761.047 322.503 773.052 322.969 785.062C323.127 789.143 323.383 793.209 323.688 797.281C323.874 799.777 324.013 802.242 324.594 804.688C325.314 807.723 326.516 810.653 328.094 813.344C329.923 816.464 332.316 819.566 335.312 821.656C338.416 823.821 342.1 824.735 345.781 825.344C347.377 825.607 348.95 826.012 350.562 826.156C352.72 826.35 354.873 826.122 357.031 826.062C359.77 826.491 362.353 824.614 362.781 821.875C363.21 819.136 361.333 816.553 358.594 816.125C356.937 815.583 355.192 815.207 353.594 814.5C353.063 814.265 352.644 813.956 352.156 813.656C351.246 813.097 350.269 812.596 349.344 812.062C348.145 811.372 346.621 810.577 345.875 809.344C345.859 809.318 345.931 809.311 345.938 809.281C345.961 809.171 345.867 809.05 345.938 808.938C345.973 808.881 346.171 808.971 346.156 808.906C346.038 808.383 345.779 807.897 345.656 807.375C345.362 806.127 345.222 804.844 345.312 803.562C345.422 802.012 346.056 800.665 346.469 799.188C348.109 793.318 349.911 787.509 351.812 781.719C354.959 772.138 358.593 762.716 362.062 753.25C364.12 747.635 366.02 741.963 368.062 736.344C369.386 732.704 370.949 729.163 372.375 725.562C375.202 711.993 366.507 698.702 352.938 695.875C351.241 695.522 349.543 695.35 347.875 695.344Z" fill="#000000" stroke="none"/>
</g>
<g opacity="1" vectornator:layerName="Curve 11">
<path d="M740.344 641.812C728.674 641.512 718.018 649.434 715.281 661.25C712.154 674.754 720.558 688.216 734.062 691.344C735.656 691.562 737.234 691.793 738.844 691.844C739.229 691.856 739.614 691.782 740 691.781C742.334 696.503 744.449 701.338 746.344 706.25C749.313 713.949 751.947 721.78 754.594 729.594C755.977 733.677 757.611 737.695 758.688 741.875C760.386 748.472 761.17 755.271 762.531 761.938C762.578 764.709 764.884 766.922 767.656 766.875C770.428 766.828 772.61 764.522 772.562 761.75C773.732 754.826 775.474 748.011 776.312 741.031C776.681 737.963 776.776 734.897 776.875 731.812C776.964 729.045 777.076 726.266 777.188 723.5C777.593 713.43 778.006 703.362 777.719 693.281C777.498 685.549 776.888 677.823 775.625 670.188C775.269 668.037 774.861 665.906 774.375 663.781C774.236 663.173 774.154 662.523 773.938 661.938C773.112 659.702 771.968 657.581 770.562 655.656C766.99 650.764 761.765 647.428 756.062 645.531C752.634 644.391 749.077 644.006 745.562 643.281C745.155 643.197 744.742 643.089 744.344 642.969C744.315 642.96 744.076 642.813 744.094 642.719C744.144 642.449 745.153 642.596 745.375 642.469C743.687 642.078 742.011 641.855 740.344 641.812ZM732.625 679C732.551 678.705 732.98 679.471 733.156 679.719C733.628 680.381 733.968 680.941 734.406 681.625C735.181 682.835 735.877 684.099 736.594 685.344C735.377 684.042 734.325 682.589 733.5 681.031C733.156 680.382 732.803 679.713 732.625 679Z" fill="#000000" stroke="none"/>
</g>
</g>
</svg>